<svg width="300" height="550" viewBox="0 0 300 550" fill="none" xmlns="http://www.w3.org/2000/svg">
<mask id="mask0_1146_2601" style="mask-type:alpha" maskUnits="userSpaceOnUse" x="0" y="0" width="300" height="550">
<path d="M299 0C299.552 0 300 0.447715 300 1V549C300 549.552 299.552 550 299 550H284.983C276.699 550 269.983 543.284 269.983 535V515C269.983 495.67 254.313 480 234.983 480H64.9834C45.6534 480 29.9834 495.67 29.9834 515V535C29.9834 543.284 23.2677 550 14.9834 550H1C0.447715 550 3.64912e-09 549.552 0 549V1C0 0.447715 0.447715 1.30864e-08 1 0H299Z" fill="#D9D9D9"/>
</mask>
<g mask="url(#mask0_1146_2601)">
<rect x="-673" width="1646" height="550" fill="#D9D9D9"/>
</g>
</svg>
