<svg width="88" height="14" viewBox="0 0 88 14" fill="none" xmlns="http://www.w3.org/2000/svg">
<path d="M11.5559 0.216009V12.816H8.63986V7.65001H2.91586V12.816H-0.000140548V0.216009H2.91586V5.18401H8.63986V0.216009H11.5559ZM20.639 13.032C19.331 13.032 18.149 12.75 17.093 12.186C16.049 11.622 15.227 10.848 14.627 9.86401C14.039 8.86801 13.745 7.75201 13.745 6.51601C13.745 5.28001 14.039 4.17001 14.627 3.18601C15.227 2.19001 16.049 1.41001 17.093 0.846009C18.149 0.282009 19.331 9.29832e-06 20.639 9.29832e-06C21.947 9.29832e-06 23.123 0.282009 24.167 0.846009C25.211 1.41001 26.033 2.19001 26.633 3.18601C27.233 4.17001 27.533 5.28001 27.533 6.51601C27.533 7.75201 27.233 8.86801 26.633 9.86401C26.033 10.848 25.211 11.622 24.167 12.186C23.123 12.75 21.947 13.032 20.639 13.032ZM20.639 10.548C21.383 10.548 22.055 10.38 22.655 10.044C23.255 9.69601 23.723 9.21601 24.059 8.60401C24.407 7.99201 24.581 7.29601 24.581 6.51601C24.581 5.73601 24.407 5.04001 24.059 4.42801C23.723 3.81601 23.255 3.34201 22.655 3.00601C22.055 2.65801 21.383 2.48401 20.639 2.48401C19.895 2.48401 19.223 2.65801 18.623 3.00601C18.023 3.34201 17.549 3.81601 17.201 4.42801C16.865 5.04001 16.697 5.73601 16.697 6.51601C16.697 7.29601 16.865 7.99201 17.201 8.60401C17.549 9.21601 18.023 9.69601 18.623 10.044C19.223 10.38 19.895 10.548 20.639 10.548ZM37.7525 12.816L35.3225 9.30601H35.1785H32.6405V12.816H29.7245V0.216009H35.1785C36.2945 0.216009 37.2605 0.402009 38.0765 0.774009C38.9045 1.14601 39.5405 1.67401 39.9845 2.35801C40.4285 3.04201 40.6505 3.85201 40.6505 4.78801C40.6505 5.72401 40.4225 6.53401 39.9665 7.21801C39.5225 7.89001 38.8865 8.40601 38.0585 8.76601L40.8845 12.816H37.7525ZM37.6985 4.78801C37.6985 4.08001 37.4705 3.54001 37.0145 3.16801C36.5585 2.78401 35.8925 2.59201 35.0165 2.59201H32.6405V6.98401H35.0165C35.8925 6.98401 36.5585 6.79201 37.0145 6.40801C37.4705 6.02401 37.6985 5.48401 37.6985 4.78801ZM42.9608 0.216009H45.8768V12.816H42.9608V0.216009ZM59.073 10.44V12.816H48.057V10.926L54.969 2.59201H48.201V0.216009H58.803V2.10601L51.909 10.44H59.073ZM66.9222 13.032C65.6142 13.032 64.4322 12.75 63.3762 12.186C62.3322 11.622 61.5102 10.848 60.9102 9.86401C60.3222 8.86801 60.0282 7.75201 60.0282 6.51601C60.0282 5.28001 60.3222 4.17001 60.9102 3.18601C61.5102 2.19001 62.3322 1.41001 63.3762 0.846009C64.4322 0.282009 65.6142 9.29832e-06 66.9222 9.29832e-06C68.2302 9.29832e-06 69.4062 0.282009 70.4502 0.846009C71.4942 1.41001 72.3162 2.19001 72.9162 3.18601C73.5162 4.17001 73.8162 5.28001 73.8162 6.51601C73.8162 7.75201 73.5162 8.86801 72.9162 9.86401C72.3162 10.848 71.4942 11.622 70.4502 12.186C69.4062 12.75 68.2302 13.032 66.9222 13.032ZM66.9222 10.548C67.6662 10.548 68.3382 10.38 68.9382 10.044C69.5382 9.69601 70.0062 9.21601 70.3422 8.60401C70.6902 7.99201 70.8642 7.29601 70.8642 6.51601C70.8642 5.73601 70.6902 5.04001 70.3422 4.42801C70.0062 3.81601 69.5382 3.34201 68.9382 3.00601C68.3382 2.65801 67.6662 2.48401 66.9222 2.48401C66.1782 2.48401 65.5062 2.65801 64.9062 3.00601C64.3062 3.34201 63.8322 3.81601 63.4842 4.42801C63.1482 5.04001 62.9802 5.73601 62.9802 6.51601C62.9802 7.29601 63.1482 7.99201 63.4842 8.60401C63.8322 9.21601 64.3062 9.69601 64.9062 10.044C65.5062 10.38 66.1782 10.548 66.9222 10.548ZM87.5637 0.216009V12.816H85.1697L78.8877 5.16601V12.816H76.0077V0.216009H78.4197L84.6837 7.86601V0.216009H87.5637Z" fill="#0B0073"/>
</svg>
