<svg width="43" height="43" viewBox="0 0 43 43" fill="none" xmlns="http://www.w3.org/2000/svg">
<circle cx="21.4118" cy="21.4118" r="20.9118" stroke="black" stroke-opacity="0.5"/>
<path d="M25.984 10.3018H16.9566C15.1921 10.3031 13.5002 11.0046 12.2526 12.2523C11.0049 13.5 10.3033 15.1918 10.302 16.9563V25.9837C10.3031 27.7484 11.0045 29.4405 12.2522 30.6884C13.4999 31.9363 15.1919 32.6379 16.9566 32.6393H25.984C27.7485 32.6377 29.4404 31.9359 30.688 30.6881C31.9357 29.4402 32.6372 27.7483 32.6385 25.9837V16.9563C32.6377 15.1917 31.9363 13.4995 30.6885 12.2517C29.4408 11.0039 27.7486 10.3026 25.984 10.3018ZM30.3926 25.9837C30.3923 27.1529 29.9277 28.2741 29.101 29.1008C28.2743 29.9275 27.1531 30.3921 25.984 30.3923H16.9566C16.3777 30.3923 15.8044 30.2783 15.2696 30.0567C14.7348 29.8352 14.2488 29.5104 13.8396 29.101C13.4303 28.6916 13.1056 28.2056 12.8842 27.6707C12.6627 27.1359 12.5488 26.5626 12.549 25.9837V16.9563C12.5488 16.3775 12.6627 15.8043 12.8842 15.2694C13.1056 14.7346 13.4303 14.2487 13.8396 13.8394C14.2489 13.4301 14.7349 13.1054 15.2697 12.8839C15.8045 12.6625 16.3777 12.5486 16.9566 12.5487H25.984C27.1528 12.549 28.2738 13.0134 29.1003 13.84C29.9268 14.6665 30.3913 15.7874 30.3916 16.9563L30.3926 25.9837Z" fill="black" fill-opacity="0.5"/>
<path d="M21.4708 15.6948C18.2847 15.6948 15.6956 18.2849 15.6956 21.47C15.6956 24.6552 18.2857 27.2453 21.4708 27.2453C24.6559 27.2453 27.2461 24.6552 27.2461 21.47C27.2461 18.2849 24.657 15.6948 21.4708 15.6948ZM21.4708 24.9984C20.5351 24.9985 19.6376 24.6269 18.9758 23.9653C18.314 23.3037 17.9421 22.4063 17.942 21.4706C17.9419 20.5348 18.3135 19.6373 18.9751 18.9755C19.6367 18.3137 20.534 17.9419 21.4698 17.9417C22.4056 17.9416 23.3031 18.3132 23.9648 18.9748C24.6266 19.6364 24.9985 20.5338 24.9986 21.4695C24.9988 22.4053 24.6272 23.3028 23.9656 23.9646C23.304 24.6264 22.4066 24.9982 21.4708 24.9984ZM27.2583 14.3535C27.5319 14.3537 27.7993 14.435 28.0267 14.5872C28.2542 14.7393 28.4314 14.9555 28.536 15.2083C28.6406 15.4611 28.668 15.7393 28.6145 16.0077C28.5611 16.276 28.4293 16.5225 28.2358 16.716C28.0423 16.9095 27.7958 17.0413 27.5275 17.0947C27.2591 17.1481 26.981 17.1208 26.7281 17.0162C26.4753 16.9116 26.2591 16.7343 26.107 16.5069C25.9549 16.2795 25.8735 16.0121 25.8733 15.7384C25.8733 14.9749 26.3912 14.3535 27.2583 14.3535Z" fill="black" fill-opacity="0.5"/>
</svg>
