<svg width="43" height="43" viewBox="0 0 43 43" fill="none" xmlns="http://www.w3.org/2000/svg">
<circle cx="21.4118" cy="21.4118" r="20.9118" stroke="black" stroke-opacity="0.5"/>
<path fill-rule="evenodd" clip-rule="evenodd" d="M15.3841 32.4236C15.857 32.4236 16.2402 32.0403 16.2402 31.5675V16.2907C16.2402 15.8179 15.857 15.4346 15.3841 15.4346H11.7398C11.267 15.4346 10.8837 15.8179 10.8837 16.2907V31.5675C10.8837 32.0403 11.267 32.4236 11.7398 32.4236H15.3841Z" fill="black" fill-opacity="0.5"/>
<path fill-rule="evenodd" clip-rule="evenodd" d="M10.0999 10.5324C10.0999 12.4445 11.6499 13.9945 13.562 13.9945C15.4741 13.9945 17.0241 12.4445 17.0241 10.5324C17.0241 8.62037 15.474 7.07031 13.562 7.07031C11.6499 7.07031 10.0999 8.62037 10.0999 10.5324Z" fill="black" fill-opacity="0.5"/>
<path fill-rule="evenodd" clip-rule="evenodd" d="M34.4981 32.4236C34.9328 32.4236 35.2852 32.0711 35.2852 31.6364V24.2428V24.1882C35.2854 20.9627 35.2858 15.1782 29.0592 15.1782C26.2314 15.1782 24.9033 16.2134 24.0097 17.5545V16.2218C24.0097 15.787 23.6572 15.4346 23.2225 15.4346H19.4403C19.0056 15.4346 18.6531 15.787 18.6531 16.2218V31.6364C18.6531 32.0711 19.0056 32.4236 19.4403 32.4236H23.2225C23.6573 32.4236 24.0097 32.0711 24.0097 31.6364V23.3716C24.1078 22.2611 24.5967 19.7865 27.0068 19.7865C29.885 19.7865 29.8279 22.8888 29.8039 24.1955C29.802 24.2994 29.8003 24.392 29.8003 24.4708V31.6364C29.8003 32.0711 30.1528 32.4236 30.5875 32.4236H34.4981Z" fill="black" fill-opacity="0.5"/>
</svg>
