<svg width="560" height="76" viewBox="0 0 560 76" fill="none" xmlns="http://www.w3.org/2000/svg">
<path d="M12.0002 11.3764V14.9124H10.8962V12.4004H1.12022L1.10422 14.9124H0.000218764L0.0162188 11.3764H0.576219C1.31222 11.3337 1.82422 10.7524 2.11222 9.63239C2.40022 8.50172 2.57622 6.90172 2.64022 4.83239L2.76822 1.20039H10.3202V11.3764H12.0002ZM3.69622 4.94439C3.64289 6.65106 3.50955 8.05906 3.29622 9.16839C3.09355 10.2671 2.74689 11.0031 2.25622 11.3764H9.15222V2.22439H3.79222L3.69622 4.94439ZM14.1433 3.98439H15.2793V10.6724L20.8953 3.98439H21.9033V12.4004H20.7673V5.71239L15.1673 12.4004H14.1433V3.98439ZM28.055 3.92039C29.1536 3.92039 29.9963 4.19772 30.583 4.75239C31.1696 5.29639 31.463 6.10706 31.463 7.18439V12.4004H30.375V11.0884C30.119 11.5257 29.7403 11.8671 29.239 12.1124C28.7483 12.3577 28.1616 12.4804 27.479 12.4804C26.5403 12.4804 25.7936 12.2564 25.239 11.8084C24.6843 11.3604 24.407 10.7684 24.407 10.0324C24.407 9.31772 24.663 8.74172 25.175 8.30439C25.6976 7.86706 26.5243 7.64839 27.655 7.64839H30.327V7.13639C30.327 6.41106 30.1243 5.86172 29.719 5.48839C29.3136 5.10439 28.7216 4.91239 27.943 4.91239C27.4096 4.91239 26.8976 5.00306 26.407 5.18439C25.9163 5.35506 25.495 5.59506 25.143 5.90439L24.631 5.05639C25.0576 4.69372 25.5696 4.41639 26.167 4.22439C26.7643 4.02172 27.3936 3.92039 28.055 3.92039ZM27.655 11.5844C28.295 11.5844 28.8443 11.4404 29.303 11.1524C29.7616 10.8537 30.103 10.4271 30.327 9.87239V8.49639H27.687C26.247 8.49639 25.527 8.99772 25.527 10.0004C25.527 10.4911 25.7136 10.8804 26.087 11.1684C26.4603 11.4457 26.983 11.5844 27.655 11.5844ZM40.4391 4.99239H35.6231V12.4004H34.4871V3.98439H40.4391V4.99239ZM42.0808 3.98439H43.2168V7.71239H48.5128V3.98439H49.6488V12.4004H48.5128V8.68839H43.2168V12.4004H42.0808V3.98439ZM56.3497 12.4804C55.5391 12.4804 54.8084 12.2991 54.1577 11.9364C53.5071 11.5631 52.9951 11.0511 52.6217 10.4004C52.2484 9.74972 52.0617 9.01372 52.0617 8.19239C52.0617 7.37106 52.2484 6.63506 52.6217 5.98439C52.9951 5.33372 53.5071 4.82706 54.1577 4.46439C54.8084 4.10172 55.5391 3.92039 56.3497 3.92039C57.1604 3.92039 57.8911 4.10172 58.5417 4.46439C59.1924 4.82706 59.6991 5.33372 60.0617 5.98439C60.4351 6.63506 60.6217 7.37106 60.6217 8.19239C60.6217 9.01372 60.4351 9.74972 60.0617 10.4004C59.6991 11.0511 59.1924 11.5631 58.5417 11.9364C57.8911 12.2991 57.1604 12.4804 56.3497 12.4804ZM56.3497 11.4724C56.9471 11.4724 57.4804 11.3391 57.9497 11.0724C58.4297 10.7951 58.8031 10.4057 59.0697 9.90439C59.3364 9.40306 59.4697 8.83239 59.4697 8.19239C59.4697 7.55239 59.3364 6.98172 59.0697 6.48039C58.8031 5.97906 58.4297 5.59506 57.9497 5.32839C57.4804 5.05106 56.9471 4.91239 56.3497 4.91239C55.7524 4.91239 55.2137 5.05106 54.7337 5.32839C54.2644 5.59506 53.8911 5.97906 53.6137 6.48039C53.3471 6.98172 53.2137 7.55239 53.2137 8.19239C53.2137 8.83239 53.3471 9.40306 53.6137 9.90439C53.8911 10.4057 54.2644 10.7951 54.7337 11.0724C55.2137 11.3391 55.7524 11.4724 56.3497 11.4724ZM66.5696 12.4804C65.7376 12.4804 64.9909 12.2991 64.3296 11.9364C63.6789 11.5737 63.1669 11.0671 62.7936 10.4164C62.4203 9.75506 62.2336 9.01372 62.2336 8.19239C62.2336 7.37106 62.4203 6.63506 62.7936 5.98439C63.1669 5.33372 63.6789 4.82706 64.3296 4.46439C64.9909 4.10172 65.7376 3.92039 66.5696 3.92039C67.2949 3.92039 67.9403 4.06439 68.5056 4.35239C69.0816 4.62972 69.5349 5.04039 69.8656 5.58439L69.0176 6.16039C68.7403 5.74439 68.3883 5.43506 67.9616 5.23239C67.5349 5.01906 67.0709 4.91239 66.5696 4.91239C65.9616 4.91239 65.4123 5.05106 64.9216 5.32839C64.4416 5.59506 64.0629 5.97906 63.7856 6.48039C63.5189 6.98172 63.3856 7.55239 63.3856 8.19239C63.3856 8.84306 63.5189 9.41906 63.7856 9.92039C64.0629 10.4111 64.4416 10.7951 64.9216 11.0724C65.4123 11.3391 65.9616 11.4724 66.5696 11.4724C67.0709 11.4724 67.5349 11.3711 67.9616 11.1684C68.3883 10.9657 68.7403 10.6564 69.0176 10.2404L69.8656 10.8164C69.5349 11.3604 69.0816 11.7764 68.5056 12.0644C67.9296 12.3417 67.2843 12.4804 66.5696 12.4804ZM77.829 4.99239H74.645V12.4004H73.509V4.99239H70.325V3.98439H77.829V4.99239ZM79.4715 3.98439H80.6075V10.6724L86.2235 3.98439H87.2315V12.4004H86.0955V5.71239L80.4955 12.4004H79.4715V3.98439ZM93.5431 8.65639H91.6231V12.4004H90.4871V3.98439H91.6231V7.68039H93.5591L96.5191 3.98439H97.7511L94.4391 8.06439L97.9911 12.4004H96.6471L93.5431 8.65639ZM102.524 3.92039C103.622 3.92039 104.465 4.19772 105.052 4.75239C105.638 5.29639 105.932 6.10706 105.932 7.18439V12.4004H104.844V11.0884C104.588 11.5257 104.209 11.8671 103.708 12.1124C103.217 12.3577 102.63 12.4804 101.948 12.4804C101.009 12.4804 100.262 12.2564 99.7077 11.8084C99.1531 11.3604 98.8757 10.7684 98.8757 10.0324C98.8757 9.31772 99.1317 8.74172 99.6437 8.30439C100.166 7.86706 100.993 7.64839 102.124 7.64839H104.796V7.13639C104.796 6.41106 104.593 5.86172 104.188 5.48839C103.782 5.10439 103.19 4.91239 102.412 4.91239C101.878 4.91239 101.366 5.00306 100.876 5.18439C100.385 5.35506 99.9637 5.59506 99.6117 5.90439L99.0997 5.05639C99.5264 4.69372 100.038 4.41639 100.636 4.22439C101.233 4.02172 101.862 3.92039 102.524 3.92039ZM102.124 11.5844C102.764 11.5844 103.313 11.4404 103.772 11.1524C104.23 10.8537 104.572 10.4271 104.796 9.87239V8.49639H102.156C100.716 8.49639 99.9957 8.99772 99.9957 10.0004C99.9957 10.4911 100.182 10.8804 100.556 11.1684C100.929 11.4457 101.452 11.5844 102.124 11.5844ZM111.527 7.64839H127.527V8.46439H111.527V7.64839ZM135.619 3.92039C136.462 3.92039 137.219 4.10706 137.891 4.48039C138.574 4.84306 139.107 5.34972 139.491 6.00039C139.886 6.65106 140.083 7.38172 140.083 8.19239C140.083 9.00306 139.886 9.73906 139.491 10.4004C139.107 11.0511 138.574 11.5631 137.891 11.9364C137.219 12.3097 136.462 12.4964 135.619 12.4964C134.915 12.4964 134.27 12.3897 133.683 12.1764C133.096 11.9524 132.6 11.6324 132.195 11.2164L132.867 10.5444C133.582 11.2164 134.483 11.5524 135.571 11.5524C136.179 11.5524 136.728 11.4244 137.219 11.1684C137.72 10.9124 138.126 10.5551 138.435 10.0964C138.755 9.63772 138.942 9.12572 138.995 8.56039H134.499V7.69639H138.979C138.862 6.85372 138.488 6.17106 137.859 5.64839C137.23 5.11506 136.467 4.84839 135.571 4.84839C134.483 4.84839 133.582 5.18439 132.867 5.85639L132.195 5.20039C132.6 4.78439 133.096 4.46972 133.683 4.25639C134.27 4.03239 134.915 3.92039 135.619 3.92039ZM148.079 4.99239H144.895V12.4004H143.759V4.99239H140.575V3.98439H148.079V4.99239ZM152.803 12.4804C151.992 12.4804 151.262 12.2991 150.611 11.9364C149.96 11.5631 149.448 11.0511 149.075 10.4004C148.702 9.74972 148.515 9.01372 148.515 8.19239C148.515 7.37106 148.702 6.63506 149.075 5.98439C149.448 5.33372 149.96 4.82706 150.611 4.46439C151.262 4.10172 151.992 3.92039 152.803 3.92039C153.614 3.92039 154.344 4.10172 154.995 4.46439C155.646 4.82706 156.152 5.33372 156.515 5.98439C156.888 6.63506 157.075 7.37106 157.075 8.19239C157.075 9.01372 156.888 9.74972 156.515 10.4004C156.152 11.0511 155.646 11.5631 154.995 11.9364C154.344 12.2991 153.614 12.4804 152.803 12.4804ZM152.803 11.4724C153.4 11.4724 153.934 11.3391 154.403 11.0724C154.883 10.7951 155.256 10.4057 155.523 9.90439C155.79 9.40306 155.923 8.83239 155.923 8.19239C155.923 7.55239 155.79 6.98172 155.523 6.48039C155.256 5.97906 154.883 5.59506 154.403 5.32839C153.934 5.05106 153.4 4.91239 152.803 4.91239C152.206 4.91239 151.667 5.05106 151.187 5.32839C150.718 5.59506 150.344 5.97906 150.067 6.48039C149.8 6.98172 149.667 7.55239 149.667 8.19239C149.667 8.83239 149.8 9.40306 150.067 9.90439C150.344 10.4057 150.718 10.7951 151.187 11.0724C151.667 11.3391 152.206 11.4724 152.803 11.4724ZM167.162 12.4804C166.352 12.4804 165.621 12.2991 164.97 11.9364C164.32 11.5631 163.808 11.0511 163.434 10.4004C163.061 9.74972 162.874 9.01372 162.874 8.19239C162.874 7.37106 163.061 6.63506 163.434 5.98439C163.808 5.33372 164.32 4.82706 164.97 4.46439C165.621 4.10172 166.352 3.92039 167.162 3.92039C167.973 3.92039 168.704 4.10172 169.354 4.46439C170.005 4.82706 170.512 5.33372 170.874 5.98439C171.248 6.63506 171.434 7.37106 171.434 8.19239C171.434 9.01372 171.248 9.74972 170.874 10.4004C170.512 11.0511 170.005 11.5631 169.354 11.9364C168.704 12.2991 167.973 12.4804 167.162 12.4804ZM167.162 11.4724C167.76 11.4724 168.293 11.3391 168.762 11.0724C169.242 10.7951 169.616 10.4057 169.882 9.90439C170.149 9.40306 170.282 8.83239 170.282 8.19239C170.282 7.55239 170.149 6.98172 169.882 6.48039C169.616 5.97906 169.242 5.59506 168.762 5.32839C168.293 5.05106 167.76 4.91239 167.162 4.91239C166.565 4.91239 166.026 5.05106 165.546 5.32839C165.077 5.59506 164.704 5.97906 164.426 6.48039C164.16 6.98172 164.026 7.55239 164.026 8.19239C164.026 8.83239 164.16 9.40306 164.426 9.90439C164.704 10.4057 165.077 10.7951 165.546 11.0724C166.026 11.3391 166.565 11.4724 167.162 11.4724ZM177.942 4.19239C178.721 4.19239 179.414 4.36839 180.022 4.72039C180.641 5.06172 181.121 5.54706 181.462 6.17639C181.803 6.79506 181.974 7.50439 181.974 8.30439C181.974 9.12572 181.793 9.85639 181.43 10.4964C181.078 11.1257 180.582 11.6164 179.942 11.9684C179.302 12.3204 178.566 12.4964 177.734 12.4964C176.337 12.4964 175.254 12.0057 174.486 11.0244C173.718 10.0431 173.334 8.68839 173.334 6.96039C173.334 5.15772 173.675 3.77639 174.358 2.81639C175.051 1.85639 176.129 1.20572 177.59 0.86439L181.366 0.000390053L181.558 1.04039L178.006 1.85639C176.801 2.12306 175.915 2.59772 175.35 3.28039C174.785 3.95239 174.475 4.94972 174.422 6.27239C174.763 5.62172 175.238 5.11506 175.846 4.75239C176.454 4.37906 177.153 4.19239 177.942 4.19239ZM177.766 11.5524C178.353 11.5524 178.875 11.4191 179.334 11.1524C179.803 10.8751 180.166 10.4911 180.422 10.0004C180.689 9.50972 180.822 8.95506 180.822 8.33639C180.822 7.71772 180.694 7.17372 180.438 6.70439C180.182 6.23506 179.819 5.87239 179.35 5.61639C178.891 5.34972 178.363 5.21639 177.766 5.21639C177.169 5.21639 176.635 5.34972 176.166 5.61639C175.707 5.87239 175.345 6.23506 175.078 6.70439C174.822 7.17372 174.694 7.71772 174.694 8.33639C174.694 8.95506 174.822 9.50972 175.078 10.0004C175.345 10.4911 175.713 10.8751 176.182 11.1524C176.651 11.4191 177.179 11.5524 177.766 11.5524ZM188.688 6.92839C189.723 6.92839 190.512 7.16306 191.056 7.63239C191.6 8.10172 191.872 8.76306 191.872 9.61639C191.872 10.5231 191.579 11.2164 190.992 11.6964C190.406 12.1657 189.563 12.4004 188.464 12.4004H185.136V4.99239H182.512V3.98439H186.272V6.92839H188.688ZM188.448 11.5204C189.195 11.5204 189.76 11.3604 190.144 11.0404C190.528 10.7204 190.72 10.2457 190.72 9.61639C190.72 8.40039 189.963 7.79239 188.448 7.79239H186.272V11.5204H188.448ZM201.394 8.54439H194.354C194.418 9.41906 194.754 10.1284 195.362 10.6724C195.97 11.2057 196.738 11.4724 197.666 11.4724C198.189 11.4724 198.669 11.3817 199.106 11.2004C199.543 11.0084 199.922 10.7311 200.242 10.3684L200.882 11.1044C200.509 11.5524 200.039 11.8937 199.474 12.1284C198.919 12.3631 198.306 12.4804 197.634 12.4804C196.77 12.4804 196.002 12.2991 195.33 11.9364C194.669 11.5631 194.151 11.0511 193.778 10.4004C193.405 9.74972 193.218 9.01372 193.218 8.19239C193.218 7.37106 193.394 6.63506 193.746 5.98439C194.109 5.33372 194.599 4.82706 195.218 4.46439C195.847 4.10172 196.551 3.92039 197.33 3.92039C198.109 3.92039 198.807 4.10172 199.426 4.46439C200.045 4.82706 200.53 5.33372 200.882 5.98439C201.234 6.62439 201.41 7.36039 201.41 8.19239L201.394 8.54439ZM197.33 4.89639C196.519 4.89639 195.837 5.15772 195.282 5.68039C194.738 6.19239 194.429 6.86439 194.354 7.69639H200.322C200.247 6.86439 199.933 6.19239 199.378 5.68039C198.834 5.15772 198.151 4.89639 197.33 4.89639ZM206.981 8.65639H205.061V12.4004H203.925V3.98439H205.061V7.68039H206.997L209.957 3.98439H211.189L207.877 8.06439L211.429 12.4004H210.085L206.981 8.65639ZM218.97 4.99239H215.786V12.4004H214.65V4.99239H211.466V3.98439H218.97V4.99239ZM220.612 3.98439H221.748V10.6724L227.364 3.98439H228.372V12.4004H227.236V5.71239L221.636 12.4004H220.612V3.98439ZM236.988 8.04839C238.129 8.31506 238.7 9.00306 238.7 10.1124C238.7 10.8484 238.428 11.4137 237.884 11.8084C237.34 12.2031 236.529 12.4004 235.452 12.4004H231.628V3.98439H235.34C236.3 3.98439 237.052 4.17106 237.596 4.54439C238.14 4.91772 238.412 5.45106 238.412 6.14439C238.412 6.60306 238.284 6.99772 238.028 7.32839C237.782 7.64839 237.436 7.88839 236.988 8.04839ZM232.732 7.72839H235.26C235.91 7.72839 236.406 7.60572 236.748 7.36039C237.1 7.11506 237.276 6.75772 237.276 6.28839C237.276 5.81906 237.1 5.46706 236.748 5.23239C236.406 4.99772 235.91 4.88039 235.26 4.88039H232.732V7.72839ZM235.404 11.5044C236.129 11.5044 236.673 11.3871 237.036 11.1524C237.398 10.9177 237.58 10.5497 237.58 10.0484C237.58 9.54706 237.414 9.17906 237.084 8.94439C236.753 8.69906 236.23 8.57639 235.516 8.57639H232.732V11.5044H235.404ZM241.362 3.98439H242.498V7.71239H247.794V3.98439H248.93V12.4004H247.794V8.68839H242.498V12.4004H241.362V3.98439ZM255.055 3.92039C256.154 3.92039 256.996 4.19772 257.583 4.75239C258.17 5.29639 258.463 6.10706 258.463 7.18439V12.4004H257.375V11.0884C257.119 11.5257 256.74 11.8671 256.239 12.1124C255.748 12.3577 255.162 12.4804 254.479 12.4804C253.54 12.4804 252.794 12.2564 252.239 11.8084C251.684 11.3604 251.407 10.7684 251.407 10.0324C251.407 9.31772 251.663 8.74172 252.175 8.30439C252.698 7.86706 253.524 7.64839 254.655 7.64839H257.327V7.13639C257.327 6.41106 257.124 5.86172 256.719 5.48839C256.314 5.10439 255.722 4.91239 254.943 4.91239C254.41 4.91239 253.898 5.00306 253.407 5.18439C252.916 5.35506 252.495 5.59506 252.143 5.90439L251.631 5.05639C252.058 4.69372 252.57 4.41639 253.167 4.22439C253.764 4.02172 254.394 3.92039 255.055 3.92039ZM254.655 11.5844C255.295 11.5844 255.844 11.4404 256.303 11.1524C256.762 10.8537 257.103 10.4271 257.327 9.87239V8.49639H254.687C253.247 8.49639 252.527 8.99772 252.527 10.0004C252.527 10.4911 252.714 10.8804 253.087 11.1684C253.46 11.4457 253.983 11.5844 254.655 11.5844ZM267.951 3.98439V12.4004H266.911V9.61639H264.271H263.951L261.999 12.4004H260.767L262.863 9.45639C262.212 9.27506 261.711 8.96572 261.359 8.52839C261.007 8.09106 260.831 7.53639 260.831 6.86439C260.831 5.92572 261.151 5.21106 261.791 4.72039C262.431 4.22972 263.306 3.98439 264.415 3.98439H267.951ZM261.983 6.89639C261.983 8.14439 262.778 8.76839 264.367 8.76839H266.911V4.99239H264.447C262.804 4.99239 261.983 5.62706 261.983 6.89639ZM275.714 2.83239C275.895 2.88572 276.034 2.98706 276.13 3.13639C276.236 3.27506 276.29 3.44572 276.29 3.64839C276.29 3.90439 276.21 4.11239 276.05 4.27239C275.89 4.43239 275.692 4.51239 275.458 4.51239C275.202 4.51239 274.994 4.43239 274.834 4.27239C274.684 4.10172 274.61 3.89372 274.61 3.64839C274.61 3.52039 274.62 3.39772 274.642 3.28039C274.674 3.15239 274.732 2.97106 274.818 2.73639L275.49 0.52839H276.258L275.714 2.83239ZM278.434 2.83239C278.615 2.88572 278.754 2.98706 278.85 3.13639C278.956 3.27506 279.01 3.44572 279.01 3.64839C279.01 3.90439 278.93 4.11239 278.77 4.27239C278.61 4.43239 278.412 4.51239 278.178 4.51239C277.922 4.51239 277.714 4.43239 277.554 4.27239C277.404 4.10172 277.33 3.89372 277.33 3.64839C277.33 3.52039 277.34 3.39772 277.362 3.28039C277.394 3.15239 277.452 2.97106 277.538 2.73639L278.21 0.52839H278.978L278.434 2.83239ZM286.307 3.92039C287.097 3.92039 287.811 4.10172 288.451 4.46439C289.091 4.81639 289.593 5.31772 289.955 5.96839C290.318 6.61906 290.499 7.36039 290.499 8.19239C290.499 9.03506 290.318 9.78172 289.955 10.4324C289.593 11.0831 289.091 11.5897 288.451 11.9524C287.822 12.3044 287.107 12.4804 286.307 12.4804C285.625 12.4804 285.006 12.3417 284.451 12.0644C283.907 11.7764 283.459 11.3604 283.107 10.8164V15.5044H281.971V3.98439H283.059V5.64839C283.401 5.09372 283.849 4.66706 284.403 4.36839C284.969 4.06972 285.603 3.92039 286.307 3.92039ZM286.227 11.4724C286.814 11.4724 287.347 11.3391 287.827 11.0724C288.307 10.7951 288.681 10.4057 288.947 9.90439C289.225 9.40306 289.363 8.83239 289.363 8.19239C289.363 7.55239 289.225 6.98706 288.947 6.49639C288.681 5.99506 288.307 5.60572 287.827 5.32839C287.347 5.05106 286.814 4.91239 286.227 4.91239C285.63 4.91239 285.091 5.05106 284.611 5.32839C284.142 5.60572 283.769 5.99506 283.491 6.49639C283.225 6.98706 283.091 7.55239 283.091 8.19239C283.091 8.83239 283.225 9.40306 283.491 9.90439C283.769 10.4057 284.142 10.7951 284.611 11.0724C285.091 11.3391 285.63 11.4724 286.227 11.4724ZM300.3 8.54439H293.26C293.324 9.41906 293.66 10.1284 294.268 10.6724C294.876 11.2057 295.644 11.4724 296.572 11.4724C297.095 11.4724 297.575 11.3817 298.012 11.2004C298.45 11.0084 298.828 10.7311 299.148 10.3684L299.788 11.1044C299.415 11.5524 298.946 11.8937 298.38 12.1284C297.826 12.3631 297.212 12.4804 296.54 12.4804C295.676 12.4804 294.908 12.2991 294.236 11.9364C293.575 11.5631 293.058 11.0511 292.684 10.4004C292.311 9.74972 292.124 9.01372 292.124 8.19239C292.124 7.37106 292.3 6.63506 292.652 5.98439C293.015 5.33372 293.506 4.82706 294.124 4.46439C294.754 4.10172 295.458 3.92039 296.236 3.92039C297.015 3.92039 297.714 4.10172 298.332 4.46439C298.951 4.82706 299.436 5.33372 299.788 5.98439C300.14 6.62439 300.316 7.36039 300.316 8.19239L300.3 8.54439ZM296.236 4.89639C295.426 4.89639 294.743 5.15772 294.188 5.68039C293.644 6.19239 293.335 6.86439 293.26 7.69639H299.228C299.154 6.86439 298.839 6.19239 298.284 5.68039C297.74 5.15772 297.058 4.89639 296.236 4.89639ZM302.831 3.98439H303.967V7.71239H309.263V3.98439H310.399V12.4004H309.263V8.68839H303.967V12.4004H302.831V3.98439ZM319.548 4.99239H316.364V12.4004H315.228V4.99239H312.044V3.98439H319.548V4.99239ZM327.142 4.99239H322.326V12.4004H321.19V3.98439H327.142V4.99239ZM335.753 8.54439H328.713C328.777 9.41906 329.113 10.1284 329.721 10.6724C330.329 11.2057 331.097 11.4724 332.025 11.4724C332.548 11.4724 333.028 11.3817 333.465 11.2004C333.903 11.0084 334.281 10.7311 334.601 10.3684L335.241 11.1044C334.868 11.5524 334.399 11.8937 333.833 12.1284C333.279 12.3631 332.665 12.4804 331.993 12.4804C331.129 12.4804 330.361 12.2991 329.689 11.9364C329.028 11.5631 328.511 11.0511 328.137 10.4004C327.764 9.74972 327.577 9.01372 327.577 8.19239C327.577 7.37106 327.753 6.63506 328.105 5.98439C328.468 5.33372 328.959 4.82706 329.577 4.46439C330.207 4.10172 330.911 3.92039 331.689 3.92039C332.468 3.92039 333.167 4.10172 333.785 4.46439C334.404 4.82706 334.889 5.33372 335.241 5.98439C335.593 6.62439 335.769 7.36039 335.769 8.19239L335.753 8.54439ZM331.689 4.89639C330.879 4.89639 330.196 5.15772 329.641 5.68039C329.097 6.19239 328.788 6.86439 328.713 7.69639H334.681C334.607 6.86439 334.292 6.19239 333.737 5.68039C333.193 5.15772 332.511 4.89639 331.689 4.89639ZM338.284 3.98439H339.42V7.71239H344.716V3.98439H345.852V12.4004H344.716V8.68839H339.42V12.4004H338.284V3.98439ZM348.425 7.56839H352.617V8.56039H348.425V7.56839ZM362.742 3.98439V12.4004H361.606V4.99239H356.326V12.4004H355.19V3.98439H362.742ZM370.307 3.92039C371.097 3.92039 371.811 4.10172 372.451 4.46439C373.091 4.81639 373.593 5.31772 373.955 5.96839C374.318 6.61906 374.499 7.36039 374.499 8.19239C374.499 9.03506 374.318 9.78172 373.955 10.4324C373.593 11.0831 373.091 11.5897 372.451 11.9524C371.822 12.3044 371.107 12.4804 370.307 12.4804C369.625 12.4804 369.006 12.3417 368.451 12.0644C367.907 11.7764 367.459 11.3604 367.107 10.8164V15.5044H365.971V3.98439H367.059V5.64839C367.401 5.09372 367.849 4.66706 368.403 4.36839C368.969 4.06972 369.603 3.92039 370.307 3.92039ZM370.227 11.4724C370.814 11.4724 371.347 11.3391 371.827 11.0724C372.307 10.7951 372.681 10.4057 372.947 9.90439C373.225 9.40306 373.363 8.83239 373.363 8.19239C373.363 7.55239 373.225 6.98706 372.947 6.49639C372.681 5.99506 372.307 5.60572 371.827 5.32839C371.347 5.05106 370.814 4.91239 370.227 4.91239C369.63 4.91239 369.091 5.05106 368.611 5.32839C368.142 5.60572 367.769 5.99506 367.491 6.49639C367.225 6.98706 367.091 7.55239 367.091 8.19239C367.091 8.83239 367.225 9.40306 367.491 9.90439C367.769 10.4057 368.142 10.7951 368.611 11.0724C369.091 11.3391 369.63 11.4724 370.227 11.4724ZM380.412 12.4804C379.602 12.4804 378.871 12.2991 378.22 11.9364C377.57 11.5631 377.058 11.0511 376.684 10.4004C376.311 9.74972 376.124 9.01372 376.124 8.19239C376.124 7.37106 376.311 6.63506 376.684 5.98439C377.058 5.33372 377.57 4.82706 378.22 4.46439C378.871 4.10172 379.602 3.92039 380.412 3.92039C381.223 3.92039 381.954 4.10172 382.604 4.46439C383.255 4.82706 383.762 5.33372 384.124 5.98439C384.498 6.63506 384.684 7.37106 384.684 8.19239C384.684 9.01372 384.498 9.74972 384.124 10.4004C383.762 11.0511 383.255 11.5631 382.604 11.9364C381.954 12.2991 381.223 12.4804 380.412 12.4804ZM380.412 11.4724C381.01 11.4724 381.543 11.3391 382.012 11.0724C382.492 10.7951 382.866 10.4057 383.132 9.90439C383.399 9.40306 383.532 8.83239 383.532 8.19239C383.532 7.55239 383.399 6.98172 383.132 6.48039C382.866 5.97906 382.492 5.59506 382.012 5.32839C381.543 5.05106 381.01 4.91239 380.412 4.91239C379.815 4.91239 379.276 5.05106 378.796 5.32839C378.327 5.59506 377.954 5.97906 377.676 6.48039C377.41 6.98172 377.276 7.55239 377.276 8.19239C377.276 8.83239 377.41 9.40306 377.676 9.90439C377.954 10.4057 378.327 10.7951 378.796 11.0724C379.276 11.3391 379.815 11.4724 380.412 11.4724ZM392.472 8.04839C393.613 8.31506 394.184 9.00306 394.184 10.1124C394.184 10.8484 393.912 11.4137 393.368 11.8084C392.824 12.2031 392.013 12.4004 390.936 12.4004H387.112V3.98439H390.824C391.784 3.98439 392.536 4.17106 393.08 4.54439C393.624 4.91772 393.896 5.45106 393.896 6.14439C393.896 6.60306 393.768 6.99772 393.512 7.32839C393.267 7.64839 392.92 7.88839 392.472 8.04839ZM388.216 7.72839H390.744C391.395 7.72839 391.891 7.60572 392.232 7.36039C392.584 7.11506 392.76 6.75772 392.76 6.28839C392.76 5.81906 392.584 5.46706 392.232 5.23239C391.891 4.99772 391.395 4.88039 390.744 4.88039H388.216V7.72839ZM390.888 11.5044C391.613 11.5044 392.157 11.3871 392.52 11.1524C392.883 10.9177 393.064 10.5497 393.064 10.0484C393.064 9.54706 392.899 9.17906 392.568 8.94439C392.237 8.69906 391.715 8.57639 391 8.57639H388.216V11.5044H390.888ZM404.206 8.54439H397.166C397.23 9.41906 397.566 10.1284 398.174 10.6724C398.782 11.2057 399.55 11.4724 400.478 11.4724C401.001 11.4724 401.481 11.3817 401.918 11.2004C402.356 11.0084 402.734 10.7311 403.054 10.3684L403.694 11.1044C403.321 11.5524 402.852 11.8937 402.286 12.1284C401.732 12.3631 401.118 12.4804 400.446 12.4804C399.582 12.4804 398.814 12.2991 398.142 11.9364C397.481 11.5631 396.964 11.0511 396.59 10.4004C396.217 9.74972 396.03 9.01372 396.03 8.19239C396.03 7.37106 396.206 6.63506 396.558 5.98439C396.921 5.33372 397.412 4.82706 398.03 4.46439C398.66 4.10172 399.364 3.92039 400.142 3.92039C400.921 3.92039 401.62 4.10172 402.238 4.46439C402.857 4.82706 403.342 5.33372 403.694 5.98439C404.046 6.62439 404.222 7.36039 404.222 8.19239L404.206 8.54439ZM400.142 4.89639C399.332 4.89639 398.649 5.15772 398.094 5.68039C397.55 6.19239 397.241 6.86439 397.166 7.69639H403.134C403.06 6.86439 402.745 6.19239 402.19 5.68039C401.646 5.15772 400.964 4.89639 400.142 4.89639ZM411.073 3.92039C411.862 3.92039 412.577 4.10172 413.217 4.46439C413.857 4.81639 414.358 5.31772 414.721 5.96839C415.084 6.61906 415.265 7.36039 415.265 8.19239C415.265 9.03506 415.084 9.78172 414.721 10.4324C414.358 11.0831 413.857 11.5897 413.217 11.9524C412.588 12.3044 411.873 12.4804 411.073 12.4804C410.39 12.4804 409.772 12.3417 409.217 12.0644C408.673 11.7764 408.225 11.3604 407.873 10.8164V15.5044H406.737V3.98439H407.825V5.64839C408.166 5.09372 408.614 4.66706 409.169 4.36839C409.734 4.06972 410.369 3.92039 411.073 3.92039ZM410.993 11.4724C411.58 11.4724 412.113 11.3391 412.593 11.0724C413.073 10.7951 413.446 10.4057 413.713 9.90439C413.99 9.40306 414.129 8.83239 414.129 8.19239C414.129 7.55239 413.99 6.98706 413.713 6.49639C413.446 5.99506 413.073 5.60572 412.593 5.32839C412.113 5.05106 411.58 4.91239 410.993 4.91239C410.396 4.91239 409.857 5.05106 409.377 5.32839C408.908 5.60572 408.534 5.99506 408.257 6.49639C407.99 6.98706 407.857 7.55239 407.857 8.19239C407.857 8.83239 407.99 9.40306 408.257 9.90439C408.534 10.4057 408.908 10.7951 409.377 11.0724C409.857 11.3391 410.396 11.4724 410.993 11.4724ZM420.762 8.65639H418.842V12.4004H417.706V3.98439H418.842V7.68039H420.778L423.738 3.98439H424.97L421.658 8.06439L425.21 12.4004H423.866L420.762 8.65639ZM429.742 3.92039C430.841 3.92039 431.684 4.19772 432.27 4.75239C432.857 5.29639 433.15 6.10706 433.15 7.18439V12.4004H432.062V11.0884C431.806 11.5257 431.428 11.8671 430.926 12.1124C430.436 12.3577 429.849 12.4804 429.166 12.4804C428.228 12.4804 427.481 12.2564 426.926 11.8084C426.372 11.3604 426.094 10.7684 426.094 10.0324C426.094 9.31772 426.35 8.74172 426.862 8.30439C427.385 7.86706 428.212 7.64839 429.342 7.64839H432.014V7.13639C432.014 6.41106 431.812 5.86172 431.406 5.48839C431.001 5.10439 430.409 4.91239 429.63 4.91239C429.097 4.91239 428.585 5.00306 428.094 5.18439C427.604 5.35506 427.182 5.59506 426.83 5.90439L426.318 5.05639C426.745 4.69372 427.257 4.41639 427.854 4.22439C428.452 4.02172 429.081 3.92039 429.742 3.92039ZM429.342 11.5844C429.982 11.5844 430.532 11.4404 430.99 11.1524C431.449 10.8537 431.79 10.4271 432.014 9.87239V8.49639H429.374C427.934 8.49639 427.214 8.99772 427.214 10.0004C427.214 10.4911 427.401 10.8804 427.774 11.1684C428.148 11.4457 428.67 11.5844 429.342 11.5844ZM436.271 0.44839C436.516 0.44839 436.719 0.533724 436.879 0.704391C437.039 0.86439 437.119 1.06706 437.119 1.31239C437.119 1.44039 437.097 1.57906 437.055 1.72839C437.023 1.86706 436.975 2.03239 436.911 2.22439L436.223 4.43239H435.455L436.015 2.12839C435.833 2.07506 435.689 1.97906 435.583 1.84039C435.476 1.69106 435.423 1.51506 435.423 1.31239C435.423 1.05639 435.503 0.84839 435.663 0.68839C435.823 0.52839 436.025 0.44839 436.271 0.44839ZM438.991 0.44839C439.236 0.44839 439.439 0.533724 439.599 0.704391C439.759 0.86439 439.839 1.06706 439.839 1.31239C439.839 1.44039 439.817 1.57906 439.775 1.72839C439.743 1.86706 439.695 2.03239 439.631 2.22439L438.943 4.43239H438.175L438.735 2.12839C438.553 2.07506 438.409 1.97906 438.303 1.84039C438.196 1.69106 438.143 1.51506 438.143 1.31239C438.143 1.05639 438.223 0.84839 438.383 0.68839C438.543 0.52839 438.745 0.44839 438.991 0.44839ZM454.679 11.4084V14.4324H453.607V12.4004H446.071V14.4324H444.999V11.4084H445.479C446.045 11.3764 446.429 10.9604 446.631 10.1604C446.834 9.36039 446.973 8.24039 447.047 6.80039L447.159 3.98439H453.367V11.4084H454.679ZM448.087 6.86439C448.034 8.05906 447.933 9.04572 447.783 9.82439C447.634 10.5924 447.367 11.1204 446.983 11.4084H452.231V4.99239H448.183L448.087 6.86439ZM464.253 8.54439H457.213C457.277 9.41906 457.613 10.1284 458.221 10.6724C458.829 11.2057 459.597 11.4724 460.525 11.4724C461.048 11.4724 461.528 11.3817 461.965 11.2004C462.403 11.0084 462.781 10.7311 463.101 10.3684L463.741 11.1044C463.368 11.5524 462.899 11.8937 462.333 12.1284C461.779 12.3631 461.165 12.4804 460.493 12.4804C459.629 12.4804 458.861 12.2991 458.189 11.9364C457.528 11.5631 457.011 11.0511 456.637 10.4004C456.264 9.74972 456.077 9.01372 456.077 8.19239C456.077 7.37106 456.253 6.63506 456.605 5.98439C456.968 5.33372 457.459 4.82706 458.077 4.46439C458.707 4.10172 459.411 3.92039 460.189 3.92039C460.968 3.92039 461.667 4.10172 462.285 4.46439C462.904 4.82706 463.389 5.33372 463.741 5.98439C464.093 6.62439 464.269 7.36039 464.269 8.19239L464.253 8.54439ZM460.189 4.89639C459.379 4.89639 458.696 5.15772 458.141 5.68039C457.597 6.19239 457.288 6.86439 457.213 7.69639H463.181C463.107 6.86439 462.792 6.19239 462.237 5.68039C461.693 5.15772 461.011 4.89639 460.189 4.89639ZM466.784 3.98439H467.92V10.6724L473.536 3.98439H474.544V12.4004H473.408V5.71239L467.808 12.4004H466.784V3.98439ZM470.608 2.76839C469.883 2.76839 469.307 2.58706 468.88 2.22439C468.453 1.86172 468.235 1.34972 468.224 0.68839H469.04C469.051 1.10439 469.2 1.44039 469.488 1.69639C469.776 1.94172 470.149 2.06439 470.608 2.06439C471.067 2.06439 471.44 1.94172 471.728 1.69639C472.027 1.44039 472.181 1.10439 472.192 0.68839H473.008C472.997 1.34972 472.773 1.86172 472.336 2.22439C471.909 2.58706 471.333 2.76839 470.608 2.76839ZM481.32 12.4804C480.488 12.4804 479.741 12.2991 479.08 11.9364C478.429 11.5737 477.917 11.0671 477.544 10.4164C477.17 9.75506 476.984 9.01372 476.984 8.19239C476.984 7.37106 477.17 6.63506 477.544 5.98439C477.917 5.33372 478.429 4.82706 479.08 4.46439C479.741 4.10172 480.488 3.92039 481.32 3.92039C482.045 3.92039 482.69 4.06439 483.256 4.35239C483.832 4.62972 484.285 5.04039 484.616 5.58439L483.768 6.16039C483.49 5.74439 483.138 5.43506 482.712 5.23239C482.285 5.01906 481.821 4.91239 481.32 4.91239C480.712 4.91239 480.162 5.05106 479.672 5.32839C479.192 5.59506 478.813 5.97906 478.536 6.48039C478.269 6.98172 478.136 7.55239 478.136 8.19239C478.136 8.84306 478.269 9.41906 478.536 9.92039C478.813 10.4111 479.192 10.7951 479.672 11.0724C480.162 11.3391 480.712 11.4724 481.32 11.4724C481.821 11.4724 482.285 11.3711 482.712 11.1684C483.138 10.9657 483.49 10.6564 483.768 10.2404L484.616 10.8164C484.285 11.3604 483.832 11.7764 483.256 12.0644C482.68 12.3417 482.034 12.4804 481.32 12.4804ZM492.579 4.99239H489.395V12.4004H488.259V4.99239H485.075V3.98439H492.579V4.99239ZM499.581 8.04839C500.723 8.31506 501.293 9.00306 501.293 10.1124C501.293 10.8484 501.021 11.4137 500.477 11.8084C499.933 12.2031 499.123 12.4004 498.045 12.4004H494.221V3.98439H497.933C498.893 3.98439 499.645 4.17106 500.189 4.54439C500.733 4.91772 501.005 5.45106 501.005 6.14439C501.005 6.60306 500.877 6.99772 500.621 7.32839C500.376 7.64839 500.029 7.88839 499.581 8.04839ZM495.325 7.72839H497.853C498.504 7.72839 499 7.60572 499.341 7.36039C499.693 7.11506 499.869 6.75772 499.869 6.28839C499.869 5.81906 499.693 5.46706 499.341 5.23239C499 4.99772 498.504 4.88039 497.853 4.88039H495.325V7.72839ZM497.997 11.5044C498.723 11.5044 499.267 11.3871 499.629 11.1524C499.992 10.9177 500.173 10.5497 500.173 10.0484C500.173 9.54706 500.008 9.17906 499.677 8.94439C499.347 8.69906 498.824 8.57639 498.109 8.57639H495.325V11.5044H497.997ZM511.108 3.98439L506.9 13.4084C506.559 14.1977 506.164 14.7577 505.716 15.0884C505.268 15.4191 504.729 15.5844 504.1 15.5844C503.695 15.5844 503.316 15.5204 502.964 15.3924C502.612 15.2644 502.308 15.0724 502.052 14.8164L502.58 13.9684C503.007 14.3951 503.519 14.6084 504.116 14.6084C504.5 14.6084 504.825 14.5017 505.092 14.2884C505.369 14.0751 505.625 13.7124 505.86 13.2004L506.228 12.3844L502.468 3.98439H503.652L506.82 11.1364L509.988 3.98439H511.108ZM520.11 3.92039C520.899 3.92039 521.608 4.10172 522.238 4.46439C522.878 4.82706 523.379 5.33372 523.742 5.98439C524.104 6.63506 524.286 7.37106 524.286 8.19239C524.286 9.01372 524.104 9.74972 523.742 10.4004C523.379 11.0511 522.878 11.5631 522.238 11.9364C521.608 12.2991 520.899 12.4804 520.11 12.4804C519.363 12.4804 518.686 12.3204 518.078 12.0004C517.47 11.6697 516.974 11.2164 516.59 10.6404C516.216 10.0644 515.998 9.40306 515.934 8.65639H514.014V12.4004H512.878V3.98439H514.014V7.61639H515.95C516.035 6.89106 516.264 6.25106 516.638 5.69639C517.022 5.13106 517.512 4.69372 518.11 4.38439C518.707 4.07506 519.374 3.92039 520.11 3.92039ZM520.11 11.4884C520.686 11.4884 521.203 11.3497 521.662 11.0724C522.131 10.7951 522.499 10.4057 522.766 9.90439C523.032 9.40306 523.166 8.83239 523.166 8.19239C523.166 7.55239 523.032 6.98172 522.766 6.48039C522.499 5.97906 522.131 5.59506 521.662 5.32839C521.203 5.05106 520.686 4.91239 520.11 4.91239C519.534 4.91239 519.011 5.05106 518.542 5.32839C518.083 5.59506 517.72 5.97906 517.454 6.48039C517.187 6.98172 517.054 7.55239 517.054 8.19239C517.054 8.83239 517.187 9.40306 517.454 9.90439C517.72 10.4057 518.083 10.7951 518.542 11.0724C519.011 11.3497 519.534 11.4884 520.11 11.4884ZM538.337 3.98439V12.4004H526.721V3.98439H527.857V11.4084H531.985V3.98439H533.121V11.4084H537.201V3.98439H538.337ZM539.633 11.4084V14.2404H538.561V12.4004H537.137V11.4084H539.633ZM548.941 8.54439H541.901C541.965 9.41906 542.301 10.1284 542.909 10.6724C543.517 11.2057 544.285 11.4724 545.213 11.4724C545.736 11.4724 546.216 11.3817 546.653 11.2004C547.09 11.0084 547.469 10.7311 547.789 10.3684L548.429 11.1044C548.056 11.5524 547.586 11.8937 547.021 12.1284C546.466 12.3631 545.853 12.4804 545.181 12.4804C544.317 12.4804 543.549 12.2991 542.877 11.9364C542.216 11.5631 541.698 11.0511 541.325 10.4004C540.952 9.74972 540.765 9.01372 540.765 8.19239C540.765 7.37106 540.941 6.63506 541.293 5.98439C541.656 5.33372 542.146 4.82706 542.765 4.46439C543.394 4.10172 544.098 3.92039 544.877 3.92039C545.656 3.92039 546.354 4.10172 546.973 4.46439C547.592 4.82706 548.077 5.33372 548.429 5.98439C548.781 6.62439 548.957 7.36039 548.957 8.19239L548.941 8.54439ZM544.877 4.89639C544.066 4.89639 543.384 5.15772 542.829 5.68039C542.285 6.19239 541.976 6.86439 541.901 7.69639H547.869C547.794 6.86439 547.48 6.19239 546.925 5.68039C546.381 5.15772 545.698 4.89639 544.877 4.89639ZM551.471 3.98439H552.607V10.6724L558.223 3.98439H559.231V12.4004H558.095V5.71239L552.495 12.4004H551.471V3.98439ZM555.295 2.76839C554.57 2.76839 553.994 2.58706 553.567 2.22439C553.141 1.86172 552.922 1.34972 552.911 0.68839H553.727C553.738 1.10439 553.887 1.44039 554.175 1.69639C554.463 1.94172 554.837 2.06439 555.295 2.06439C555.754 2.06439 556.127 1.94172 556.415 1.69639C556.714 1.44039 556.869 1.10439 556.879 0.68839H557.695C557.685 1.34972 557.461 1.86172 557.023 2.22439C556.597 2.58706 556.021 2.76839 555.295 2.76839ZM4.96022 32.4804C4.12822 32.4804 3.38155 32.2991 2.72022 31.9364C2.06955 31.5737 1.55755 31.0671 1.18422 30.4164C0.810885 29.7551 0.624219 29.0137 0.624219 28.1924C0.624219 27.3711 0.810885 26.6351 1.18422 25.9844C1.55755 25.3337 2.06955 24.8271 2.72022 24.4644C3.38155 24.1017 4.12822 23.9204 4.96022 23.9204C5.68555 23.9204 6.33089 24.0644 6.89622 24.3524C7.47222 24.6297 7.92555 25.0404 8.25622 25.5844L7.40822 26.1604C7.13089 25.7444 6.77889 25.4351 6.35222 25.2324C5.92555 25.0191 5.46155 24.9124 4.96022 24.9124C4.35222 24.9124 3.80289 25.0511 3.31222 25.3284C2.83222 25.5951 2.45355 25.9791 2.17622 26.4804C1.90955 26.9817 1.77622 27.5524 1.77622 28.1924C1.77622 28.8431 1.90955 29.4191 2.17622 29.9204C2.45355 30.4111 2.83222 30.7951 3.31222 31.0724C3.80289 31.3391 4.35222 31.4724 4.96022 31.4724C5.46155 31.4724 5.92555 31.3711 6.35222 31.1684C6.77889 30.9657 7.13089 30.6564 7.40822 30.2404L8.25622 30.8164C7.92555 31.3604 7.47222 31.7764 6.89622 32.0644C6.32022 32.3417 5.67489 32.4804 4.96022 32.4804ZM10.4558 23.9844H11.5918V30.6724L17.2078 23.9844H18.2158V32.4004H17.0798V25.7124L11.4798 32.4004H10.4558V23.9844ZM24.9915 32.4804C24.1595 32.4804 23.4128 32.2991 22.7515 31.9364C22.1008 31.5737 21.5888 31.0671 21.2155 30.4164C20.8421 29.7551 20.6555 29.0137 20.6555 28.1924C20.6555 27.3711 20.8421 26.6351 21.2155 25.9844C21.5888 25.3337 22.1008 24.8271 22.7515 24.4644C23.4128 24.1017 24.1595 23.9204 24.9915 23.9204C25.7168 23.9204 26.3621 24.0644 26.9275 24.3524C27.5035 24.6297 27.9568 25.0404 28.2875 25.5844L27.4395 26.1604C27.1621 25.7444 26.8101 25.4351 26.3835 25.2324C25.9568 25.0191 25.4928 24.9124 24.9915 24.9124C24.3835 24.9124 23.8341 25.0511 23.3435 25.3284C22.8635 25.5951 22.4848 25.9791 22.2075 26.4804C21.9408 26.9817 21.8075 27.5524 21.8075 28.1924C21.8075 28.8431 21.9408 29.4191 22.2075 29.9204C22.4848 30.4111 22.8635 30.7951 23.3435 31.0724C23.8341 31.3391 24.3835 31.4724 24.9915 31.4724C25.4928 31.4724 25.9568 31.3711 26.3835 31.1684C26.8101 30.9657 27.1621 30.6564 27.4395 30.2404L28.2875 30.8164C27.9568 31.3604 27.5035 31.7764 26.9275 32.0644C26.3515 32.3417 25.7061 32.4804 24.9915 32.4804ZM36.2508 24.9924H33.0668V32.4004H31.9308V24.9924H28.7468V23.9844H36.2508V24.9924ZM44.8627 28.5444H37.8227C37.8867 29.4191 38.2227 30.1284 38.8307 30.6724C39.4387 31.2057 40.2067 31.4724 41.1347 31.4724C41.6574 31.4724 42.1374 31.3817 42.5747 31.2004C43.0121 31.0084 43.3907 30.7311 43.7107 30.3684L44.3507 31.1044C43.9774 31.5524 43.5081 31.8937 42.9427 32.1284C42.3881 32.3631 41.7747 32.4804 41.1027 32.4804C40.2387 32.4804 39.4707 32.2991 38.7987 31.9364C38.1374 31.5631 37.6201 31.0511 37.2467 30.4004C36.8734 29.7497 36.6867 29.0137 36.6867 28.1924C36.6867 27.3711 36.8627 26.6351 37.2147 25.9844C37.5774 25.3337 38.0681 24.8271 38.6867 24.4644C39.3161 24.1017 40.0201 23.9204 40.7987 23.9204C41.5774 23.9204 42.2761 24.1017 42.8947 24.4644C43.5134 24.8271 43.9987 25.3337 44.3507 25.9844C44.7027 26.6244 44.8787 27.3604 44.8787 28.1924L44.8627 28.5444ZM40.7987 24.8964C39.9881 24.8964 39.3054 25.1577 38.7507 25.6804C38.2067 26.1924 37.8974 26.8644 37.8227 27.6964H43.7907C43.7161 26.8644 43.4014 26.1924 42.8467 25.6804C42.3027 25.1577 41.6201 24.8964 40.7987 24.8964ZM56.8013 23.9844V32.4004H55.7613V25.7444L52.3533 31.3764H51.8413L48.4333 25.7284V32.4004H47.3933V23.9844H48.5453L52.1133 30.0484L55.7453 23.9844H56.8013ZM63.57 26.9604C64.626 26.9711 65.4313 27.2057 65.986 27.6644C66.5406 28.1231 66.818 28.7844 66.818 29.6484C66.818 30.5444 66.5193 31.2324 65.922 31.7124C65.3246 32.1924 64.4713 32.4271 63.362 32.4164L60.034 32.4004V23.9844H61.17V26.9284L63.57 26.9604ZM68.226 23.9844H69.362V32.4004H68.226V23.9844ZM63.298 31.5524C64.0766 31.5631 64.6633 31.4084 65.058 31.0884C65.4633 30.7577 65.666 30.2777 65.666 29.6484C65.666 29.0297 65.4686 28.5711 65.074 28.2724C64.6793 27.9737 64.0873 27.8191 63.298 27.8084L61.17 27.7764V31.5204L63.298 31.5524ZM77.056 21.2004H85.248V22.2084H78.224V25.8724H81.888C83.2106 25.8724 84.2133 26.1444 84.896 26.6884C85.5893 27.2324 85.936 28.0217 85.936 29.0564C85.936 30.1337 85.5626 30.9604 84.816 31.5364C84.08 32.1124 83.0186 32.4004 81.632 32.4004H77.056V21.2004ZM81.616 31.4564C82.6506 31.4564 83.4293 31.2591 83.952 30.8644C84.4853 30.4697 84.752 29.8831 84.752 29.1044C84.752 28.3364 84.4906 27.7657 83.968 27.3924C83.456 27.0084 82.672 26.8164 81.616 26.8164H78.224V31.4564H81.616ZM88.409 23.9844H89.545V30.6724L95.161 23.9844H96.169V32.4004H95.033V25.7124L89.433 32.4004H88.409V23.9844ZM104.609 32.4964C103.499 32.4964 102.491 32.2511 101.585 31.7604C100.689 31.2591 99.9846 30.5764 99.4726 29.7124C98.9713 28.8484 98.7206 27.8777 98.7206 26.8004C98.7206 25.7231 98.9713 24.7524 99.4726 23.8884C99.9846 23.0244 100.689 22.3471 101.585 21.8564C102.491 21.3551 103.499 21.1044 104.609 21.1044C105.718 21.1044 106.715 21.3497 107.601 21.8404C108.497 22.3311 109.201 23.0137 109.713 23.8884C110.225 24.7524 110.481 25.7231 110.481 26.8004C110.481 27.8777 110.225 28.8537 109.713 29.7284C109.201 30.5924 108.497 31.2697 107.601 31.7604C106.715 32.2511 105.718 32.4964 104.609 32.4964ZM104.609 31.4404C105.494 31.4404 106.294 31.2431 107.009 30.8484C107.723 30.4431 108.283 29.8884 108.689 29.1844C109.094 28.4697 109.297 27.6751 109.297 26.8004C109.297 25.9257 109.094 25.1364 108.689 24.4324C108.283 23.7177 107.723 23.1631 107.009 22.7684C106.294 22.3631 105.494 22.1604 104.609 22.1604C103.723 22.1604 102.918 22.3631 102.193 22.7684C101.478 23.1631 100.913 23.7177 100.497 24.4324C100.091 25.1364 99.8886 25.9257 99.8886 26.8004C99.8886 27.6751 100.091 28.4697 100.497 29.1844C100.913 29.8884 101.478 30.4431 102.193 30.8484C102.918 31.2431 103.723 31.4404 104.609 31.4404ZM120.478 22.2244H116.542V32.4004H115.374V22.2244H111.438V21.2004H120.478V22.2244ZM122.208 25.6644C121.973 25.6644 121.77 25.5791 121.6 25.4084C121.44 25.2377 121.36 25.0297 121.36 24.7844C121.36 24.5391 121.44 24.3364 121.6 24.1764C121.77 24.0057 121.973 23.9204 122.208 23.9204C122.442 23.9204 122.645 24.0057 122.816 24.1764C122.986 24.3364 123.072 24.5391 123.072 24.7844C123.072 25.0297 122.986 25.2377 122.816 25.4084C122.645 25.5791 122.442 25.6644 122.208 25.6644ZM122.208 32.4804C121.973 32.4804 121.77 32.3951 121.6 32.2244C121.44 32.0537 121.36 31.8457 121.36 31.6004C121.36 31.3551 121.44 31.1524 121.6 30.9924C121.77 30.8217 121.973 30.7364 122.208 30.7364C122.442 30.7364 122.645 30.8217 122.816 30.9924C122.986 31.1524 123.072 31.3551 123.072 31.6004C123.072 31.8457 122.986 32.0537 122.816 32.2244C122.645 32.3951 122.442 32.4804 122.208 32.4804ZM4.49622 48.6564H2.57622V52.4004H1.44022V43.9844H2.57622V47.6804H4.51222L7.47222 43.9844H8.70422L5.39222 48.0644L8.94422 52.4004H7.60022L4.49622 48.6564ZM13.4768 43.9204C14.5755 43.9204 15.4182 44.1977 16.0048 44.7524C16.5915 45.2964 16.8848 46.1071 16.8848 47.1844V52.4004H15.7968V51.0884C15.5408 51.5257 15.1622 51.8671 14.6608 52.1124C14.1702 52.3577 13.5835 52.4804 12.9008 52.4804C11.9622 52.4804 11.2155 52.2564 10.6608 51.8084C10.1062 51.3604 9.82884 50.7684 9.82884 50.0324C9.82884 49.3177 10.0848 48.7417 10.5968 48.3044C11.1195 47.8671 11.9462 47.6484 13.0768 47.6484H15.7488V47.1364C15.7488 46.4111 15.5462 45.8617 15.1408 45.4884C14.7355 45.1044 14.1435 44.9124 13.3648 44.9124C12.8315 44.9124 12.3195 45.0031 11.8288 45.1844C11.3382 45.3551 10.9168 45.5951 10.5648 45.9044L10.0528 45.0564C10.4795 44.6937 10.9915 44.4164 11.5888 44.2244C12.1862 44.0217 12.8155 43.9204 13.4768 43.9204ZM13.0768 51.5844C13.7168 51.5844 14.2662 51.4404 14.7248 51.1524C15.1835 50.8537 15.5248 50.4271 15.7488 49.8724V48.4964H13.1088C11.6688 48.4964 10.9488 48.9977 10.9488 50.0004C10.9488 50.4911 11.1355 50.8804 11.5088 51.1684C11.8822 51.4457 12.4048 51.5844 13.0768 51.5844ZM22.965 48.6564H21.045V52.4004H19.909V43.9844H21.045V47.6804H22.981L25.941 43.9844H27.173L23.861 48.0644L27.413 52.4004H26.069L22.965 48.6564ZM36.8653 52.4804C36.0547 52.4804 35.324 52.2991 34.6733 51.9364C34.0227 51.5631 33.5107 51.0511 33.1373 50.4004C32.764 49.7497 32.5773 49.0137 32.5773 48.1924C32.5773 47.3711 32.764 46.6351 33.1373 45.9844C33.5107 45.3337 34.0227 44.8271 34.6733 44.4644C35.324 44.1017 36.0547 43.9204 36.8653 43.9204C37.676 43.9204 38.4067 44.1017 39.0573 44.4644C39.708 44.8271 40.2147 45.3337 40.5773 45.9844C40.9507 46.6351 41.1373 47.3711 41.1373 48.1924C41.1373 49.0137 40.9507 49.7497 40.5773 50.4004C40.2147 51.0511 39.708 51.5631 39.0573 51.9364C38.4067 52.2991 37.676 52.4804 36.8653 52.4804ZM36.8653 51.4724C37.4627 51.4724 37.996 51.3391 38.4653 51.0724C38.9453 50.7951 39.3187 50.4057 39.5853 49.9044C39.852 49.4031 39.9853 48.8324 39.9853 48.1924C39.9853 47.5524 39.852 46.9817 39.5853 46.4804C39.3187 45.9791 38.9453 45.5951 38.4653 45.3284C37.996 45.0511 37.4627 44.9124 36.8653 44.9124C36.268 44.9124 35.7293 45.0511 35.2493 45.3284C34.78 45.5951 34.4067 45.9791 34.1293 46.4804C33.8627 46.9817 33.7293 47.5524 33.7293 48.1924C33.7293 48.8324 33.8627 49.4031 34.1293 49.9044C34.4067 50.4057 34.78 50.7951 35.2493 51.0724C35.7293 51.3391 36.268 51.4724 36.8653 51.4724ZM43.5652 43.9844H44.7012V47.7124H49.9972V43.9844H51.1332V52.4004H49.9972V48.6884H44.7012V52.4004H43.5652V43.9844ZM57.2581 43.9204C58.3568 43.9204 59.1994 44.1977 59.7861 44.7524C60.3728 45.2964 60.6661 46.1071 60.6661 47.1844V52.4004H59.5781V51.0884C59.3221 51.5257 58.9434 51.8671 58.4421 52.1124C57.9514 52.3577 57.3648 52.4804 56.6821 52.4804C55.7434 52.4804 54.9968 52.2564 54.4421 51.8084C53.8874 51.3604 53.6101 50.7684 53.6101 50.0324C53.6101 49.3177 53.8661 48.7417 54.3781 48.3044C54.9008 47.8671 55.7274 47.6484 56.8581 47.6484H59.5301V47.1364C59.5301 46.4111 59.3274 45.8617 58.9221 45.4884C58.5168 45.1044 57.9248 44.9124 57.1461 44.9124C56.6128 44.9124 56.1008 45.0031 55.6101 45.1844C55.1194 45.3551 54.6981 45.5951 54.3461 45.9044L53.8341 45.0564C54.2608 44.6937 54.7728 44.4164 55.3701 44.2244C55.9674 44.0217 56.5968 43.9204 57.2581 43.9204ZM56.8581 51.5844C57.4981 51.5844 58.0474 51.4404 58.5061 51.1524C58.9648 50.8537 59.3061 50.4271 59.5301 49.8724V48.4964H56.8901C55.4501 48.4964 54.7301 48.9977 54.7301 50.0004C54.7301 50.4911 54.9168 50.8804 55.2901 51.1684C55.6634 51.4457 56.1861 51.5844 56.8581 51.5844ZM72.2137 43.9204C73.0031 43.9204 73.7177 44.1017 74.3577 44.4644C74.9977 44.8164 75.4991 45.3177 75.8617 45.9684C76.2244 46.6191 76.4057 47.3604 76.4057 48.1924C76.4057 49.0351 76.2244 49.7817 75.8617 50.4324C75.4991 51.0831 74.9977 51.5897 74.3577 51.9524C73.7284 52.3044 73.0137 52.4804 72.2137 52.4804C71.5311 52.4804 70.9124 52.3417 70.3577 52.0644C69.8137 51.7764 69.3657 51.3604 69.0137 50.8164V55.5044H67.8777V43.9844H68.9657V45.6484C69.3071 45.0937 69.7551 44.6671 70.3097 44.3684C70.8751 44.0697 71.5097 43.9204 72.2137 43.9204ZM72.1337 51.4724C72.7204 51.4724 73.2537 51.3391 73.7337 51.0724C74.2137 50.7951 74.5871 50.4057 74.8537 49.9044C75.1311 49.4031 75.2697 48.8324 75.2697 48.1924C75.2697 47.5524 75.1311 46.9871 74.8537 46.4964C74.5871 45.9951 74.2137 45.6057 73.7337 45.3284C73.2537 45.0511 72.7204 44.9124 72.1337 44.9124C71.5364 44.9124 70.9977 45.0511 70.5177 45.3284C70.0484 45.6057 69.6751 45.9951 69.3977 46.4964C69.1311 46.9871 68.9977 47.5524 68.9977 48.1924C68.9977 48.8324 69.1311 49.4031 69.3977 49.9044C69.6751 50.4057 70.0484 50.7951 70.5177 51.0724C70.9977 51.3391 71.5364 51.4724 72.1337 51.4724ZM86.2065 48.5444H79.1665C79.2305 49.4191 79.5665 50.1284 80.1745 50.6724C80.7825 51.2057 81.5505 51.4724 82.4785 51.4724C83.0011 51.4724 83.4811 51.3817 83.9185 51.2004C84.3558 51.0084 84.7345 50.7311 85.0545 50.3684L85.6945 51.1044C85.3211 51.5524 84.8518 51.8937 84.2865 52.1284C83.7318 52.3631 83.1185 52.4804 82.4465 52.4804C81.5825 52.4804 80.8145 52.2991 80.1425 51.9364C79.4811 51.5631 78.9638 51.0511 78.5905 50.4004C78.2171 49.7497 78.0305 49.0137 78.0305 48.1924C78.0305 47.3711 78.2065 46.6351 78.5585 45.9844C78.9211 45.3337 79.4118 44.8271 80.0305 44.4644C80.6598 44.1017 81.3638 43.9204 82.1425 43.9204C82.9211 43.9204 83.6198 44.1017 84.2385 44.4644C84.8571 44.8271 85.3425 45.3337 85.6945 45.9844C86.0465 46.6244 86.2225 47.3604 86.2225 48.1924L86.2065 48.5444ZM82.1425 44.8964C81.3318 44.8964 80.6491 45.1577 80.0945 45.6804C79.5505 46.1924 79.2411 46.8644 79.1665 47.6964H85.1345C85.0598 46.8644 84.7451 46.1924 84.1905 45.6804C83.6465 45.1577 82.9638 44.8964 82.1425 44.8964ZM91.3987 43.9204C92.4974 43.9204 93.3401 44.1977 93.9267 44.7524C94.5134 45.2964 94.8067 46.1071 94.8067 47.1844V52.4004H93.7187V51.0884C93.4627 51.5257 93.0841 51.8671 92.5827 52.1124C92.0921 52.3577 91.5054 52.4804 90.8227 52.4804C89.8841 52.4804 89.1374 52.2564 88.5827 51.8084C88.0281 51.3604 87.7507 50.7684 87.7507 50.0324C87.7507 49.3177 88.0067 48.7417 88.5187 48.3044C89.0414 47.8671 89.8681 47.6484 90.9987 47.6484H93.6707V47.1364C93.6707 46.4111 93.4681 45.8617 93.0627 45.4884C92.6574 45.1044 92.0654 44.9124 91.2867 44.9124C90.7534 44.9124 90.2414 45.0031 89.7507 45.1844C89.2601 45.3551 88.8387 45.5951 88.4867 45.9044L87.9747 45.0564C88.4014 44.6937 88.9134 44.4164 89.5107 44.2244C90.1081 44.0217 90.7374 43.9204 91.3987 43.9204ZM90.9987 51.5844C91.6387 51.5844 92.1881 51.4404 92.6467 51.1524C93.1054 50.8537 93.4467 50.4271 93.6707 49.8724V48.4964H91.0307C89.5907 48.4964 88.8707 48.9977 88.8707 50.0004C88.8707 50.4911 89.0574 50.8804 89.4307 51.1684C89.8041 51.4457 90.3267 51.5844 90.9987 51.5844ZM104.711 43.9844V52.4004H103.575V44.9924H99.5428L99.4308 47.0724C99.3455 48.8217 99.1428 50.1657 98.8228 51.1044C98.5028 52.0431 97.9322 52.5124 97.1108 52.5124C96.8868 52.5124 96.6148 52.4697 96.2948 52.3844L96.3748 51.4084C96.5668 51.4511 96.7002 51.4724 96.7748 51.4724C97.2122 51.4724 97.5428 51.2697 97.7668 50.8644C97.9908 50.4591 98.1402 49.9577 98.2148 49.3604C98.2895 48.7631 98.3535 47.9737 98.4068 46.9924L98.5508 43.9844H104.711ZM111.556 46.9604C112.612 46.9711 113.412 47.2057 113.956 47.6644C114.511 48.1231 114.788 48.7844 114.788 49.6484C114.788 50.5444 114.49 51.2324 113.892 51.7124C113.306 52.1924 112.452 52.4271 111.332 52.4164L107.94 52.4004V43.9844H109.076V46.9284L111.556 46.9604ZM111.268 51.5524C112.047 51.5631 112.634 51.4084 113.028 51.0884C113.434 50.7577 113.636 50.2777 113.636 49.6484C113.636 49.0297 113.439 48.5711 113.044 48.2724C112.65 47.9737 112.058 47.8191 111.268 47.8084L109.076 47.7764V51.5204L111.268 51.5524ZM116.956 43.9844H118.092V47.7124H123.388V43.9844H124.524V52.4004H123.388V48.6884H118.092V52.4004H116.956V43.9844ZM131.225 52.4804C130.414 52.4804 129.683 52.2991 129.033 51.9364C128.382 51.5631 127.87 51.0511 127.497 50.4004C127.123 49.7497 126.937 49.0137 126.937 48.1924C126.937 47.3711 127.123 46.6351 127.497 45.9844C127.87 45.3337 128.382 44.8271 129.033 44.4644C129.683 44.1017 130.414 43.9204 131.225 43.9204C132.035 43.9204 132.766 44.1017 133.417 44.4644C134.067 44.8271 134.574 45.3337 134.937 45.9844C135.31 46.6351 135.497 47.3711 135.497 48.1924C135.497 49.0137 135.31 49.7497 134.937 50.4004C134.574 51.0511 134.067 51.5631 133.417 51.9364C132.766 52.2991 132.035 52.4804 131.225 52.4804ZM131.225 51.4724C131.822 51.4724 132.355 51.3391 132.825 51.0724C133.305 50.7951 133.678 50.4057 133.945 49.9044C134.211 49.4031 134.345 48.8324 134.345 48.1924C134.345 47.5524 134.211 46.9817 133.945 46.4804C133.678 45.9791 133.305 45.5951 132.825 45.3284C132.355 45.0511 131.822 44.9124 131.225 44.9124C130.627 44.9124 130.089 45.0511 129.609 45.3284C129.139 45.5951 128.766 45.9791 128.489 46.4804C128.222 46.9817 128.089 47.5524 128.089 48.1924C128.089 48.8324 128.222 49.4031 128.489 49.9044C128.766 50.4057 129.139 50.7951 129.609 51.0724C130.089 51.3391 130.627 51.4724 131.225 51.4724ZM146.448 43.9204C147.237 43.9204 147.952 44.1017 148.592 44.4644C149.232 44.8164 149.733 45.3177 150.096 45.9684C150.459 46.6191 150.64 47.3604 150.64 48.1924C150.64 49.0351 150.459 49.7817 150.096 50.4324C149.733 51.0831 149.232 51.5897 148.592 51.9524C147.963 52.3044 147.248 52.4804 146.448 52.4804C145.765 52.4804 145.147 52.3417 144.592 52.0644C144.048 51.7764 143.6 51.3604 143.248 50.8164V55.5044H142.112V43.9844H143.2V45.6484C143.541 45.0937 143.989 44.6671 144.544 44.3684C145.109 44.0697 145.744 43.9204 146.448 43.9204ZM146.368 51.4724C146.955 51.4724 147.488 51.3391 147.968 51.0724C148.448 50.7951 148.821 50.4057 149.088 49.9044C149.365 49.4031 149.504 48.8324 149.504 48.1924C149.504 47.5524 149.365 46.9871 149.088 46.4964C148.821 45.9951 148.448 45.6057 147.968 45.3284C147.488 45.0511 146.955 44.9124 146.368 44.9124C145.771 44.9124 145.232 45.0511 144.752 45.3284C144.283 45.6057 143.909 45.9951 143.632 46.4964C143.365 46.9871 143.232 47.5524 143.232 48.1924C143.232 48.8324 143.365 49.4031 143.632 49.9044C143.909 50.4057 144.283 50.7951 144.752 51.0724C145.232 51.3391 145.771 51.4724 146.368 51.4724ZM155.93 43.9204C157.029 43.9204 157.871 44.1977 158.458 44.7524C159.045 45.2964 159.338 46.1071 159.338 47.1844V52.4004H158.25V51.0884C157.994 51.5257 157.615 51.8671 157.114 52.1124C156.623 52.3577 156.037 52.4804 155.354 52.4804C154.415 52.4804 153.669 52.2564 153.114 51.8084C152.559 51.3604 152.282 50.7684 152.282 50.0324C152.282 49.3177 152.538 48.7417 153.05 48.3044C153.573 47.8671 154.399 47.6484 155.53 47.6484H158.202V47.1364C158.202 46.4111 157.999 45.8617 157.594 45.4884C157.189 45.1044 156.597 44.9124 155.818 44.9124C155.285 44.9124 154.773 45.0031 154.282 45.1844C153.791 45.3551 153.37 45.5951 153.018 45.9044L152.506 45.0564C152.933 44.6937 153.445 44.4164 154.042 44.2244C154.639 44.0217 155.269 43.9204 155.93 43.9204ZM155.53 51.5844C156.17 51.5844 156.719 51.4404 157.178 51.1524C157.637 50.8537 157.978 50.4271 158.202 49.8724V48.4964H155.562C154.122 48.4964 153.402 48.9977 153.402 50.0004C153.402 50.4911 153.589 50.8804 153.962 51.1684C154.335 51.4457 154.858 51.5844 155.53 51.5844ZM166.442 44.1924C167.221 44.1924 167.914 44.3684 168.522 44.7204C169.141 45.0617 169.621 45.5471 169.962 46.1764C170.303 46.7951 170.474 47.5044 170.474 48.3044C170.474 49.1257 170.293 49.8564 169.93 50.4964C169.578 51.1257 169.082 51.6164 168.442 51.9684C167.802 52.3204 167.066 52.4964 166.234 52.4964C164.837 52.4964 163.754 52.0057 162.986 51.0244C162.218 50.0431 161.834 48.6884 161.834 46.9604C161.834 45.1577 162.175 43.7764 162.858 42.8164C163.551 41.8564 164.629 41.2057 166.09 40.8644L169.866 40.0004L170.058 41.0404L166.506 41.8564C165.301 42.1231 164.415 42.5977 163.85 43.2804C163.285 43.9524 162.975 44.9497 162.922 46.2724C163.263 45.6217 163.738 45.1151 164.346 44.7524C164.954 44.3791 165.653 44.1924 166.442 44.1924ZM166.266 51.5524C166.853 51.5524 167.375 51.4191 167.834 51.1524C168.303 50.8751 168.666 50.4911 168.922 50.0004C169.189 49.5097 169.322 48.9551 169.322 48.3364C169.322 47.7177 169.194 47.1737 168.938 46.7044C168.682 46.2351 168.319 45.8724 167.85 45.6164C167.391 45.3497 166.863 45.2164 166.266 45.2164C165.669 45.2164 165.135 45.3497 164.666 45.6164C164.207 45.8724 163.845 46.2351 163.578 46.7044C163.322 47.1737 163.194 47.7177 163.194 48.3364C163.194 48.9551 163.322 49.5097 163.578 50.0004C163.845 50.4911 164.213 50.8751 164.682 51.1524C165.151 51.4191 165.679 51.5524 166.266 51.5524ZM176.381 52.4804C175.57 52.4804 174.84 52.2991 174.189 51.9364C173.538 51.5631 173.026 51.0511 172.653 50.4004C172.28 49.7497 172.093 49.0137 172.093 48.1924C172.093 47.3711 172.28 46.6351 172.653 45.9844C173.026 45.3337 173.538 44.8271 174.189 44.4644C174.84 44.1017 175.57 43.9204 176.381 43.9204C177.192 43.9204 177.922 44.1017 178.573 44.4644C179.224 44.8271 179.73 45.3337 180.093 45.9844C180.466 46.6351 180.653 47.3711 180.653 48.1924C180.653 49.0137 180.466 49.7497 180.093 50.4004C179.73 51.0511 179.224 51.5631 178.573 51.9364C177.922 52.2991 177.192 52.4804 176.381 52.4804ZM176.381 51.4724C176.978 51.4724 177.512 51.3391 177.981 51.0724C178.461 50.7951 178.834 50.4057 179.101 49.9044C179.368 49.4031 179.501 48.8324 179.501 48.1924C179.501 47.5524 179.368 46.9817 179.101 46.4804C178.834 45.9791 178.461 45.5951 177.981 45.3284C177.512 45.0511 176.978 44.9124 176.381 44.9124C175.784 44.9124 175.245 45.0511 174.765 45.3284C174.296 45.5951 173.922 45.9791 173.645 46.4804C173.378 46.9817 173.245 47.5524 173.245 48.1924C173.245 48.8324 173.378 49.4031 173.645 49.9044C173.922 50.4057 174.296 50.7951 174.765 51.0724C175.245 51.3391 175.784 51.4724 176.381 51.4724ZM188.688 44.9924H185.504V52.4004H184.368V44.9924H181.184V43.9844H188.688V44.9924ZM193.227 43.9204C194.326 43.9204 195.168 44.1977 195.755 44.7524C196.342 45.2964 196.635 46.1071 196.635 47.1844V52.4004H195.547V51.0884C195.291 51.5257 194.912 51.8671 194.411 52.1124C193.92 52.3577 193.334 52.4804 192.651 52.4804C191.712 52.4804 190.966 52.2564 190.411 51.8084C189.856 51.3604 189.579 50.7684 189.579 50.0324C189.579 49.3177 189.835 48.7417 190.347 48.3044C190.87 47.8671 191.696 47.6484 192.827 47.6484H195.499V47.1364C195.499 46.4111 195.296 45.8617 194.891 45.4884C194.486 45.1044 193.894 44.9124 193.115 44.9124C192.582 44.9124 192.07 45.0031 191.579 45.1844C191.088 45.3551 190.667 45.5951 190.315 45.9044L189.803 45.0564C190.23 44.6937 190.742 44.4164 191.339 44.2244C191.936 44.0217 192.566 43.9204 193.227 43.9204ZM192.827 51.5844C193.467 51.5844 194.016 51.4404 194.475 51.1524C194.934 50.8537 195.275 50.4271 195.499 49.8724V48.4964H192.859C191.419 48.4964 190.699 48.9977 190.699 50.0004C190.699 50.4911 190.886 50.8804 191.259 51.1684C191.632 51.4457 192.155 51.5844 192.827 51.5844ZM207.019 48.5444H199.979C200.043 49.4191 200.379 50.1284 200.987 50.6724C201.595 51.2057 202.363 51.4724 203.291 51.4724C203.814 51.4724 204.294 51.3817 204.731 51.2004C205.168 51.0084 205.547 50.7311 205.867 50.3684L206.507 51.1044C206.134 51.5524 205.664 51.8937 205.099 52.1284C204.544 52.3631 203.931 52.4804 203.259 52.4804C202.395 52.4804 201.627 52.2991 200.955 51.9364C200.294 51.5631 199.776 51.0511 199.403 50.4004C199.03 49.7497 198.843 49.0137 198.843 48.1924C198.843 47.3711 199.019 46.6351 199.371 45.9844C199.734 45.3337 200.224 44.8271 200.843 44.4644C201.472 44.1017 202.176 43.9204 202.955 43.9204C203.734 43.9204 204.432 44.1017 205.051 44.4644C205.67 44.8271 206.155 45.3337 206.507 45.9844C206.859 46.6244 207.035 47.3604 207.035 48.1924L207.019 48.5444ZM202.955 44.8964C202.144 44.8964 201.462 45.1577 200.907 45.6804C200.363 46.1924 200.054 46.8644 199.979 47.6964H205.947C205.872 46.8644 205.558 46.1924 205.003 45.6804C204.459 45.1577 203.776 44.8964 202.955 44.8964ZM215.095 44.9924H211.911V52.4004H210.775V44.9924H207.591V43.9844H215.095V44.9924ZM220.925 43.9844H222.061V47.7124H227.357V43.9844H228.493V52.4004H227.357V48.6884H222.061V52.4004H220.925V43.9844ZM234.617 43.9204C235.716 43.9204 236.559 44.1977 237.145 44.7524C237.732 45.2964 238.025 46.1071 238.025 47.1844V52.4004H236.937V51.0884C236.681 51.5257 236.303 51.8671 235.801 52.1124C235.311 52.3577 234.724 52.4804 234.041 52.4804C233.103 52.4804 232.356 52.2564 231.801 51.8084C231.247 51.3604 230.969 50.7684 230.969 50.0324C230.969 49.3177 231.225 48.7417 231.737 48.3044C232.26 47.8671 233.087 47.6484 234.217 47.6484H236.889V47.1364C236.889 46.4111 236.687 45.8617 236.281 45.4884C235.876 45.1044 235.284 44.9124 234.505 44.9124C233.972 44.9124 233.46 45.0031 232.969 45.1844C232.479 45.3551 232.057 45.5951 231.705 45.9044L231.193 45.0564C231.62 44.6937 232.132 44.4164 232.729 44.2244C233.327 44.0217 233.956 43.9204 234.617 43.9204ZM234.217 51.5844C234.857 51.5844 235.407 51.4404 235.865 51.1524C236.324 50.8537 236.665 50.4271 236.889 49.8724V48.4964H234.249C232.809 48.4964 232.089 48.9977 232.089 50.0004C232.089 50.4911 232.276 50.8804 232.649 51.1684C233.023 51.4457 233.545 51.5844 234.217 51.5844ZM252.789 43.9844V52.4004H251.653V44.9924H246.373V52.4004H245.237V43.9844H252.789ZM262.898 43.9844V52.4004H261.762V44.9924H257.73L257.618 47.0724C257.533 48.8217 257.33 50.1657 257.01 51.1044C256.69 52.0431 256.12 52.5124 255.298 52.5124C255.074 52.5124 254.802 52.4697 254.482 52.3844L254.562 51.4084C254.754 51.4511 254.888 51.4724 254.962 51.4724C255.4 51.4724 255.73 51.2697 255.954 50.8644C256.178 50.4591 256.328 49.9577 256.402 49.3604C256.477 48.7631 256.541 47.9737 256.594 46.9924L256.738 43.9844H262.898ZM269.6 52.4804C268.789 52.4804 268.058 52.2991 267.408 51.9364C266.757 51.5631 266.245 51.0511 265.872 50.4004C265.498 49.7497 265.312 49.0137 265.312 48.1924C265.312 47.3711 265.498 46.6351 265.872 45.9844C266.245 45.3337 266.757 44.8271 267.408 44.4644C268.058 44.1017 268.789 43.9204 269.6 43.9204C270.41 43.9204 271.141 44.1017 271.792 44.4644C272.442 44.8271 272.949 45.3337 273.312 45.9844C273.685 46.6351 273.872 47.3711 273.872 48.1924C273.872 49.0137 273.685 49.7497 273.312 50.4004C272.949 51.0511 272.442 51.5631 271.792 51.9364C271.141 52.2991 270.41 52.4804 269.6 52.4804ZM269.6 51.4724C270.197 51.4724 270.73 51.3391 271.2 51.0724C271.68 50.7951 272.053 50.4057 272.32 49.9044C272.586 49.4031 272.72 48.8324 272.72 48.1924C272.72 47.5524 272.586 46.9817 272.32 46.4804C272.053 45.9791 271.68 45.5951 271.2 45.3284C270.73 45.0511 270.197 44.9124 269.6 44.9124C269.002 44.9124 268.464 45.0511 267.984 45.3284C267.514 45.5951 267.141 45.9791 266.864 46.4804C266.597 46.9817 266.464 47.5524 266.464 48.1924C266.464 48.8324 266.597 49.4031 266.864 49.9044C267.141 50.4057 267.514 50.7951 267.984 51.0724C268.464 51.3391 269.002 51.4724 269.6 51.4724ZM287.916 43.9844V52.4004H276.3V43.9844H277.436V51.4084H281.564V43.9844H282.7V51.4084H286.78V43.9844H287.916ZM289.212 51.4084V54.2404H288.14V52.4004H286.716V51.4084H289.212ZM294.055 43.9204C295.154 43.9204 295.996 44.1977 296.583 44.7524C297.17 45.2964 297.463 46.1071 297.463 47.1844V52.4004H296.375V51.0884C296.119 51.5257 295.74 51.8671 295.239 52.1124C294.748 52.3577 294.162 52.4804 293.479 52.4804C292.54 52.4804 291.794 52.2564 291.239 51.8084C290.684 51.3604 290.407 50.7684 290.407 50.0324C290.407 49.3177 290.663 48.7417 291.175 48.3044C291.698 47.8671 292.524 47.6484 293.655 47.6484H296.327V47.1364C296.327 46.4111 296.124 45.8617 295.719 45.4884C295.314 45.1044 294.722 44.9124 293.943 44.9124C293.41 44.9124 292.898 45.0031 292.407 45.1844C291.916 45.3551 291.495 45.5951 291.143 45.9044L290.631 45.0564C291.058 44.6937 291.57 44.4164 292.167 44.2244C292.764 44.0217 293.394 43.9204 294.055 43.9204ZM293.655 51.5844C294.295 51.5844 294.844 51.4404 295.303 51.1524C295.762 50.8537 296.103 50.4271 296.327 49.8724V48.4964H293.687C292.247 48.4964 291.527 48.9977 291.527 50.0004C291.527 50.4911 291.714 50.8804 292.087 51.1684C292.46 51.4457 292.983 51.5844 293.655 51.5844ZM308.695 51.4084V54.4324H307.623V52.4004H300.087V54.4324H299.015V51.4084H299.495C300.06 51.3764 300.444 50.9604 300.647 50.1604C300.85 49.3604 300.988 48.2404 301.063 46.8004L301.175 43.9844H307.383V51.4084H308.695ZM302.103 46.8644C302.05 48.0591 301.948 49.0457 301.799 49.8244C301.65 50.5924 301.383 51.1204 300.999 51.4084H306.247V44.9924H302.199L302.103 46.8644ZM313.965 48.6564H312.045V52.4004H310.909V43.9844H312.045V47.6804H313.981L316.941 43.9844H318.173L314.861 48.0644L318.413 52.4004H317.069L313.965 48.6564ZM327.269 48.5444H320.229C320.293 49.4191 320.629 50.1284 321.237 50.6724C321.845 51.2057 322.613 51.4724 323.541 51.4724C324.064 51.4724 324.544 51.3817 324.981 51.2004C325.418 51.0084 325.797 50.7311 326.117 50.3684L326.757 51.1044C326.384 51.5524 325.914 51.8937 325.349 52.1284C324.794 52.3631 324.181 52.4804 323.509 52.4804C322.645 52.4804 321.877 52.2991 321.205 51.9364C320.544 51.5631 320.026 51.0511 319.653 50.4004C319.28 49.7497 319.093 49.0137 319.093 48.1924C319.093 47.3711 319.269 46.6351 319.621 45.9844C319.984 45.3337 320.474 44.8271 321.093 44.4644C321.722 44.1017 322.426 43.9204 323.205 43.9204C323.984 43.9204 324.682 44.1017 325.301 44.4644C325.92 44.8271 326.405 45.3337 326.757 45.9844C327.109 46.6244 327.285 47.3604 327.285 48.1924L327.269 48.5444ZM323.205 44.8964C322.394 44.8964 321.712 45.1577 321.157 45.6804C320.613 46.1924 320.304 46.8644 320.229 47.6964H326.197C326.122 46.8644 325.808 46.1924 325.253 45.6804C324.709 45.1577 324.026 44.8964 323.205 44.8964ZM329.896 50.7364C330.141 50.7364 330.344 50.8217 330.504 50.9924C330.664 51.1524 330.744 51.3551 330.744 51.6004C330.744 51.7284 330.722 51.8671 330.68 52.0164C330.648 52.1657 330.594 52.3364 330.52 52.5284L329.848 54.7364H329.08L329.624 52.4164C329.453 52.3631 329.314 52.2671 329.208 52.1284C329.101 51.9791 329.048 51.8031 329.048 51.6004C329.048 51.3551 329.128 51.1524 329.288 50.9924C329.448 50.8217 329.65 50.7364 329.896 50.7364ZM343.33 44.9924H338.514V52.4004H337.378V43.9844H343.33V44.9924ZM352.664 51.4084V54.4324H351.592V52.4004H344.056V54.4324H342.984V51.4084H343.464C344.029 51.3764 344.413 50.9604 344.616 50.1604C344.819 49.3604 344.957 48.2404 345.032 46.8004L345.144 43.9844H351.352V51.4084H352.664ZM346.072 46.8644C346.019 48.0591 345.917 49.0457 345.768 49.8244C345.619 50.5924 345.352 51.1204 344.968 51.4084H350.216V44.9924H346.168L346.072 46.8644ZM362.238 48.5444H355.198C355.262 49.4191 355.598 50.1284 356.206 50.6724C356.814 51.2057 357.582 51.4724 358.51 51.4724C359.032 51.4724 359.512 51.3817 359.95 51.2004C360.387 51.0084 360.766 50.7311 361.086 50.3684L361.726 51.1044C361.352 51.5524 360.883 51.8937 360.318 52.1284C359.763 52.3631 359.15 52.4804 358.478 52.4804C357.614 52.4804 356.846 52.2991 356.174 51.9364C355.512 51.5631 354.995 51.0511 354.622 50.4004C354.248 49.7497 354.062 49.0137 354.062 48.1924C354.062 47.3711 354.238 46.6351 354.59 45.9844C354.952 45.3337 355.443 44.8271 356.062 44.4644C356.691 44.1017 357.395 43.9204 358.174 43.9204C358.952 43.9204 359.651 44.1017 360.27 44.4644C360.888 44.8271 361.374 45.3337 361.726 45.9844C362.078 46.6244 362.254 47.3604 362.254 48.1924L362.238 48.5444ZM358.174 44.8964C357.363 44.8964 356.68 45.1577 356.126 45.6804C355.582 46.1924 355.272 46.8644 355.198 47.6964H361.166C361.091 46.8644 360.776 46.1924 360.222 45.6804C359.678 45.1577 358.995 44.8964 358.174 44.8964ZM372.476 52.4804C371.644 52.4804 370.897 52.2991 370.236 51.9364C369.585 51.5737 369.073 51.0671 368.7 50.4164C368.327 49.7551 368.14 49.0137 368.14 48.1924C368.14 47.3711 368.327 46.6351 368.7 45.9844C369.073 45.3337 369.585 44.8271 370.236 44.4644C370.897 44.1017 371.644 43.9204 372.476 43.9204C373.201 43.9204 373.847 44.0644 374.412 44.3524C374.988 44.6297 375.441 45.0404 375.772 45.5844L374.924 46.1604C374.647 45.7444 374.295 45.4351 373.868 45.2324C373.441 45.0191 372.977 44.9124 372.476 44.9124C371.868 44.9124 371.319 45.0511 370.828 45.3284C370.348 45.5951 369.969 45.9791 369.692 46.4804C369.425 46.9817 369.292 47.5524 369.292 48.1924C369.292 48.8431 369.425 49.4191 369.692 49.9204C369.969 50.4111 370.348 50.7951 370.828 51.0724C371.319 51.3391 371.868 51.4724 372.476 51.4724C372.977 51.4724 373.441 51.3711 373.868 51.1684C374.295 50.9657 374.647 50.6564 374.924 50.2404L375.772 50.8164C375.441 51.3604 374.988 51.7764 374.412 52.0644C373.836 52.3417 373.191 52.4804 372.476 52.4804ZM384.57 43.9844V52.4004H383.434V44.9924H379.402L379.29 47.0724C379.205 48.8217 379.002 50.1657 378.682 51.1044C378.362 52.0431 377.792 52.5124 376.97 52.5124C376.746 52.5124 376.474 52.4697 376.154 52.3844L376.234 51.4084C376.426 51.4511 376.56 51.4724 376.634 51.4724C377.072 51.4724 377.402 51.2697 377.626 50.8644C377.85 50.4591 378 49.9577 378.074 49.3604C378.149 48.7631 378.213 47.9737 378.266 46.9924L378.41 43.9844H384.57ZM390.696 43.9204C391.794 43.9204 392.637 44.1977 393.224 44.7524C393.81 45.2964 394.104 46.1071 394.104 47.1844V52.4004H393.016V51.0884C392.76 51.5257 392.381 51.8671 391.88 52.1124C391.389 52.3577 390.802 52.4804 390.12 52.4804C389.181 52.4804 388.434 52.2564 387.88 51.8084C387.325 51.3604 387.048 50.7684 387.048 50.0324C387.048 49.3177 387.304 48.7417 387.816 48.3044C388.338 47.8671 389.165 47.6484 390.296 47.6484H392.968V47.1364C392.968 46.4111 392.765 45.8617 392.36 45.4884C391.954 45.1044 391.362 44.9124 390.584 44.9124C390.05 44.9124 389.538 45.0031 389.048 45.1844C388.557 45.3551 388.136 45.5951 387.784 45.9044L387.272 45.0564C387.698 44.6937 388.21 44.4164 388.808 44.2244C389.405 44.0217 390.034 43.9204 390.696 43.9204ZM390.296 51.5844C390.936 51.5844 391.485 51.4404 391.944 51.1524C392.402 50.8537 392.744 50.4271 392.968 49.8724V48.4964H390.328C388.888 48.4964 388.168 48.9977 388.168 50.0004C388.168 50.4911 388.354 50.8804 388.728 51.1684C389.101 51.4457 389.624 51.5844 390.296 51.5844ZM401.208 44.1924C401.986 44.1924 402.68 44.3684 403.288 44.7204C403.906 45.0617 404.386 45.5471 404.728 46.1764C405.069 46.7951 405.24 47.5044 405.24 48.3044C405.24 49.1257 405.058 49.8564 404.696 50.4964C404.344 51.1257 403.848 51.6164 403.208 51.9684C402.568 52.3204 401.832 52.4964 401 52.4964C399.602 52.4964 398.52 52.0057 397.752 51.0244C396.984 50.0431 396.6 48.6884 396.6 46.9604C396.6 45.1577 396.941 43.7764 397.624 42.8164C398.317 41.8564 399.394 41.2057 400.856 40.8644L404.632 40.0004L404.824 41.0404L401.272 41.8564C400.066 42.1231 399.181 42.5977 398.616 43.2804C398.05 43.9524 397.741 44.9497 397.688 46.2724C398.029 45.6217 398.504 45.1151 399.112 44.7524C399.72 44.3791 400.418 44.1924 401.208 44.1924ZM401.032 51.5524C401.618 51.5524 402.141 51.4191 402.6 51.1524C403.069 50.8751 403.432 50.4911 403.688 50.0004C403.954 49.5097 404.088 48.9551 404.088 48.3364C404.088 47.7177 403.96 47.1737 403.704 46.7044C403.448 46.2351 403.085 45.8724 402.616 45.6164C402.157 45.3497 401.629 45.2164 401.032 45.2164C400.434 45.2164 399.901 45.3497 399.432 45.6164C398.973 45.8724 398.61 46.2351 398.344 46.7044C398.088 47.1737 397.96 47.7177 397.96 48.3364C397.96 48.9551 398.088 49.5097 398.344 50.0004C398.61 50.4911 398.978 50.8751 399.448 51.1524C399.917 51.4191 400.445 51.5524 401.032 51.5524ZM411.211 46.9604C412.267 46.9711 413.072 47.2057 413.627 47.6644C414.181 48.1231 414.459 48.7844 414.459 49.6484C414.459 50.5444 414.16 51.2324 413.563 51.7124C412.965 52.1924 412.112 52.4271 411.003 52.4164L407.675 52.4004V43.9844H408.811V46.9284L411.211 46.9604ZM415.867 43.9844H417.003V52.4004H415.867V43.9844ZM410.939 51.5524C411.717 51.5631 412.304 51.4084 412.699 51.0884C413.104 50.7577 413.307 50.2777 413.307 49.6484C413.307 49.0297 413.109 48.5711 412.715 48.2724C412.32 47.9737 411.728 47.8191 410.939 47.8084L408.811 47.7764V51.5204L410.939 51.5524ZM427.597 48.5444H420.557C420.621 49.4191 420.957 50.1284 421.565 50.6724C422.173 51.2057 422.941 51.4724 423.869 51.4724C424.392 51.4724 424.872 51.3817 425.309 51.2004C425.746 51.0084 426.125 50.7311 426.445 50.3684L427.085 51.1044C426.712 51.5524 426.242 51.8937 425.677 52.1284C425.122 52.3631 424.509 52.4804 423.837 52.4804C422.973 52.4804 422.205 52.2991 421.533 51.9364C420.872 51.5631 420.354 51.0511 419.981 50.4004C419.608 49.7497 419.421 49.0137 419.421 48.1924C419.421 47.3711 419.597 46.6351 419.949 45.9844C420.312 45.3337 420.802 44.8271 421.421 44.4644C422.05 44.1017 422.754 43.9204 423.533 43.9204C424.312 43.9204 425.01 44.1017 425.629 44.4644C426.248 44.8271 426.733 45.3337 427.085 45.9844C427.437 46.6244 427.613 47.3604 427.613 48.1924L427.597 48.5444ZM423.533 44.8964C422.722 44.8964 422.04 45.1577 421.485 45.6804C420.941 46.1924 420.632 46.8644 420.557 47.6964H426.525C426.45 46.8644 426.136 46.1924 425.581 45.6804C425.037 45.1577 424.354 44.8964 423.533 44.8964ZM443.723 43.9844V52.4004H442.683V45.7444L439.275 51.3764H438.763L435.355 45.7284V52.4004H434.315V43.9844H435.467L439.035 50.0484L442.667 43.9844H443.723ZM454.316 48.5444H447.276C447.34 49.4191 447.676 50.1284 448.284 50.6724C448.892 51.2057 449.66 51.4724 450.588 51.4724C451.111 51.4724 451.591 51.3817 452.028 51.2004C452.465 51.0084 452.844 50.7311 453.164 50.3684L453.804 51.1044C453.431 51.5524 452.961 51.8937 452.396 52.1284C451.841 52.3631 451.228 52.4804 450.556 52.4804C449.692 52.4804 448.924 52.2991 448.252 51.9364C447.591 51.5631 447.073 51.0511 446.7 50.4004C446.327 49.7497 446.14 49.0137 446.14 48.1924C446.14 47.3711 446.316 46.6351 446.668 45.9844C447.031 45.3337 447.521 44.8271 448.14 44.4644C448.769 44.1017 449.473 43.9204 450.252 43.9204C451.031 43.9204 451.729 44.1017 452.348 44.4644C452.967 44.8271 453.452 45.3337 453.804 45.9844C454.156 46.6244 454.332 47.3604 454.332 48.1924L454.316 48.5444ZM450.252 44.8964C449.441 44.8964 448.759 45.1577 448.204 45.6804C447.66 46.1924 447.351 46.8644 447.276 47.6964H453.244C453.169 46.8644 452.855 46.1924 452.3 45.6804C451.756 45.1577 451.073 44.8964 450.252 44.8964ZM460.366 52.4804C459.534 52.4804 458.788 52.2991 458.126 51.9364C457.476 51.5737 456.964 51.0671 456.59 50.4164C456.217 49.7551 456.03 49.0137 456.03 48.1924C456.03 47.3711 456.217 46.6351 456.59 45.9844C456.964 45.3337 457.476 44.8271 458.126 44.4644C458.788 44.1017 459.534 43.9204 460.366 43.9204C461.092 43.9204 461.737 44.0644 462.302 44.3524C462.878 44.6297 463.332 45.0404 463.662 45.5844L462.814 46.1604C462.537 45.7444 462.185 45.4351 461.758 45.2324C461.332 45.0191 460.868 44.9124 460.366 44.9124C459.758 44.9124 459.209 45.0511 458.718 45.3284C458.238 45.5951 457.86 45.9791 457.582 46.4804C457.316 46.9817 457.182 47.5524 457.182 48.1924C457.182 48.8431 457.316 49.4191 457.582 49.9204C457.86 50.4111 458.238 50.7951 458.718 51.0724C459.209 51.3391 459.758 51.4724 460.366 51.4724C460.868 51.4724 461.332 51.3711 461.758 51.1684C462.185 50.9657 462.537 50.6564 462.814 50.2404L463.662 50.8164C463.332 51.3604 462.878 51.7764 462.302 52.0644C461.726 52.3417 461.081 52.4804 460.366 52.4804ZM471.626 44.9924H468.442V52.4004H467.306V44.9924H464.122V43.9844H471.626V44.9924ZM476.164 43.9204C477.263 43.9204 478.106 44.1977 478.692 44.7524C479.279 45.2964 479.572 46.1071 479.572 47.1844V52.4004H478.484V51.0884C478.228 51.5257 477.85 51.8671 477.348 52.1124C476.858 52.3577 476.271 52.4804 475.588 52.4804C474.65 52.4804 473.903 52.2564 473.348 51.8084C472.794 51.3604 472.516 50.7684 472.516 50.0324C472.516 49.3177 472.772 48.7417 473.284 48.3044C473.807 47.8671 474.634 47.6484 475.764 47.6484H478.436V47.1364C478.436 46.4111 478.234 45.8617 477.828 45.4884C477.423 45.1044 476.831 44.9124 476.052 44.9124C475.519 44.9124 475.007 45.0031 474.516 45.1844C474.026 45.3551 473.604 45.5951 473.252 45.9044L472.74 45.0564C473.167 44.6937 473.679 44.4164 474.276 44.2244C474.874 44.0217 475.503 43.9204 476.164 43.9204ZM475.764 51.5844C476.404 51.5844 476.954 51.4404 477.412 51.1524C477.871 50.8537 478.212 50.4271 478.436 49.8724V48.4964H475.796C474.356 48.4964 473.636 48.9977 473.636 50.0004C473.636 50.4911 473.823 50.8804 474.196 51.1684C474.57 51.4457 475.092 51.5844 475.764 51.5844ZM486.784 43.9844H487.92V50.6724L493.536 43.9844H494.544V52.4004H493.408V45.7124L487.808 52.4004H486.784V43.9844ZM505.043 48.6564H503.123V52.4004H501.987V43.9844H503.123V47.6804H505.059L508.019 43.9844H509.251L505.939 48.0644L509.491 52.4004H508.147L505.043 48.6564ZM514.024 43.9204C515.122 43.9204 515.965 44.1977 516.552 44.7524C517.138 45.2964 517.432 46.1071 517.432 47.1844V52.4004H516.344V51.0884C516.088 51.5257 515.709 51.8671 515.208 52.1124C514.717 52.3577 514.13 52.4804 513.448 52.4804C512.509 52.4804 511.762 52.2564 511.208 51.8084C510.653 51.3604 510.376 50.7684 510.376 50.0324C510.376 49.3177 510.632 48.7417 511.144 48.3044C511.666 47.8671 512.493 47.6484 513.624 47.6484H516.296V47.1364C516.296 46.4111 516.093 45.8617 515.688 45.4884C515.282 45.1044 514.69 44.9124 513.912 44.9124C513.378 44.9124 512.866 45.0031 512.376 45.1844C511.885 45.3551 511.464 45.5951 511.112 45.9044L510.6 45.0564C511.026 44.6937 511.538 44.4164 512.136 44.2244C512.733 44.0217 513.362 43.9204 514.024 43.9204ZM513.624 51.5844C514.264 51.5844 514.813 51.4404 515.272 51.1524C515.73 50.8537 516.072 50.4271 516.296 49.8724V48.4964H513.656C512.216 48.4964 511.496 48.9977 511.496 50.0004C511.496 50.4911 511.682 50.8804 512.056 51.1684C512.429 51.4457 512.952 51.5844 513.624 51.5844ZM523.512 48.6564H521.592V52.4004H520.456V43.9844H521.592V47.6804H523.528L526.488 43.9844H527.72L524.408 48.0644L527.96 52.4004H526.616L523.512 48.6564ZM529.753 43.9844H530.889V50.6724L536.505 43.9844H537.513V52.4004H536.377V45.7124L530.777 52.4004H529.753V43.9844ZM548.128 48.5444H541.088C541.152 49.4191 541.488 50.1284 542.096 50.6724C542.704 51.2057 543.472 51.4724 544.4 51.4724C544.923 51.4724 545.403 51.3817 545.84 51.2004C546.278 51.0084 546.656 50.7311 546.976 50.3684L547.616 51.1044C547.243 51.5524 546.774 51.8937 546.208 52.1284C545.654 52.3631 545.04 52.4804 544.368 52.4804C543.504 52.4804 542.736 52.2991 542.064 51.9364C541.403 51.5631 540.886 51.0511 540.512 50.4004C540.139 49.7497 539.952 49.0137 539.952 48.1924C539.952 47.3711 540.128 46.6351 540.48 45.9844C540.843 45.3337 541.334 44.8271 541.952 44.4644C542.582 44.1017 543.286 43.9204 544.064 43.9204C544.843 43.9204 545.542 44.1017 546.16 44.4644C546.779 44.8271 547.264 45.3337 547.616 45.9844C547.968 46.6244 548.144 47.3604 548.144 48.1924L548.128 48.5444ZM544.064 44.8964C543.254 44.8964 542.571 45.1577 542.016 45.6804C541.472 46.1924 541.163 46.8644 541.088 47.6964H547.056C546.982 46.8644 546.667 46.1924 546.112 45.6804C545.568 45.1577 544.886 44.8964 544.064 44.8964ZM1.44022 63.9844H2.57622V70.6724L8.19222 63.9844H9.20022V72.4004H8.06422V65.7124L2.46422 72.4004H1.44022V63.9844ZM16.38 68.0164C16.9773 68.1551 17.436 68.3951 17.756 68.7364C18.0866 69.0777 18.252 69.4937 18.252 69.9844C18.252 70.4751 18.0813 70.9124 17.74 71.2964C17.4093 71.6804 16.956 71.9791 16.38 72.1924C15.804 72.3951 15.1693 72.4964 14.476 72.4964C13.868 72.4964 13.2706 72.4111 12.684 72.2404C12.0973 72.0591 11.5853 71.7977 11.148 71.4564L11.532 70.6084C11.916 70.8964 12.364 71.1204 12.876 71.2804C13.388 71.4404 13.9053 71.5204 14.428 71.5204C15.2066 71.5204 15.8413 71.3764 16.332 71.0884C16.8333 70.7897 17.084 70.3897 17.084 69.8884C17.084 69.4404 16.8813 69.0937 16.476 68.8484C16.0706 68.5924 15.516 68.4644 14.812 68.4644H13.372V67.6324H14.748C15.3773 67.6324 15.884 67.5151 16.268 67.2804C16.652 67.0351 16.844 66.7097 16.844 66.3044C16.844 65.8564 16.6253 65.5044 16.188 65.2484C15.7613 64.9924 15.2013 64.8644 14.508 64.8644C13.6013 64.8644 12.7053 65.0937 11.82 65.5524L11.5 64.6724C12.5026 64.1497 13.5426 63.8884 14.62 63.8884C15.26 63.8884 15.836 63.9844 16.348 64.1764C16.8706 64.3577 17.276 64.6191 17.564 64.9604C17.8626 65.3017 18.012 65.6964 18.012 66.1444C18.012 66.5711 17.8626 66.9497 17.564 67.2804C17.276 67.6111 16.8813 67.8564 16.38 68.0164ZM30.2388 63.9844V72.4004H29.1988V65.7444L25.7908 71.3764H25.2788L21.8708 65.7284V72.4004H20.8308V63.9844H21.9828L25.5508 70.0484L29.1828 63.9844H30.2388ZM40.8315 68.5444H33.7915C33.8555 69.4191 34.1915 70.1284 34.7995 70.6724C35.4075 71.2057 36.1755 71.4724 37.1035 71.4724C37.6261 71.4724 38.1061 71.3817 38.5435 71.2004C38.9808 71.0084 39.3595 70.7311 39.6795 70.3684L40.3195 71.1044C39.9461 71.5524 39.4768 71.8937 38.9115 72.1284C38.3568 72.3631 37.7435 72.4804 37.0715 72.4804C36.2075 72.4804 35.4395 72.2991 34.7675 71.9364C34.1061 71.5631 33.5888 71.0511 33.2155 70.4004C32.8421 69.7497 32.6555 69.0137 32.6555 68.1924C32.6555 67.3711 32.8315 66.6351 33.1835 65.9844C33.5461 65.3337 34.0368 64.8271 34.6555 64.4644C35.2848 64.1017 35.9888 63.9204 36.7675 63.9204C37.5461 63.9204 38.2448 64.1017 38.8635 64.4644C39.4821 64.8271 39.9675 65.3337 40.3195 65.9844C40.6715 66.6244 40.8475 67.3604 40.8475 68.1924L40.8315 68.5444ZM36.7675 64.8964C35.9568 64.8964 35.2741 65.1577 34.7195 65.6804C34.1755 66.1924 33.8661 66.8644 33.7915 67.6964H39.7595C39.6848 66.8644 39.3701 66.1924 38.8155 65.6804C38.2715 65.1577 37.5888 64.8964 36.7675 64.8964ZM43.3621 63.9844H44.4981V67.7124H49.7941V63.9844H50.9301V72.4004H49.7941V68.6884H44.4981V72.4004H43.3621V63.9844ZM61.519 68.5444H54.479C54.543 69.4191 54.879 70.1284 55.487 70.6724C56.095 71.2057 56.863 71.4724 57.791 71.4724C58.3136 71.4724 58.7936 71.3817 59.231 71.2004C59.6683 71.0084 60.047 70.7311 60.367 70.3684L61.007 71.1044C60.6336 71.5524 60.1643 71.8937 59.599 72.1284C59.0443 72.3631 58.431 72.4804 57.759 72.4804C56.895 72.4804 56.127 72.2991 55.455 71.9364C54.7936 71.5631 54.2763 71.0511 53.903 70.4004C53.5296 69.7497 53.343 69.0137 53.343 68.1924C53.343 67.3711 53.519 66.6351 53.871 65.9844C54.2336 65.3337 54.7243 64.8271 55.343 64.4644C55.9723 64.1017 56.6763 63.9204 57.455 63.9204C58.2336 63.9204 58.9323 64.1017 59.551 64.4644C60.1696 64.8271 60.655 65.3337 61.007 65.9844C61.359 66.6244 61.535 67.3604 61.535 68.1924L61.519 68.5444ZM57.455 64.8964C56.6443 64.8964 55.9616 65.1577 55.407 65.6804C54.863 66.1924 54.5536 66.8644 54.479 67.6964H60.447C60.3723 66.8644 60.0576 66.1924 59.503 65.6804C58.959 65.1577 58.2763 64.8964 57.455 64.8964ZM64.0496 63.9844H65.1856V67.7124H70.4816V63.9844H71.6176V72.4004H70.4816V68.6884H65.1856V72.4004H64.0496V63.9844ZM74.8465 63.9844H75.9825V70.6724L81.5985 63.9844H82.6065V72.4004H81.4705V65.7124L75.8705 72.4004H74.8465V63.9844ZM92.3261 63.9844V72.4004H91.2861V69.6164H88.6461H88.3261L86.3741 72.4004H85.1421L87.2381 69.4564C86.5874 69.2751 86.0861 68.9657 85.7341 68.5284C85.3821 68.0911 85.2061 67.5364 85.2061 66.8644C85.2061 65.9257 85.5261 65.2111 86.1661 64.7204C86.8061 64.2297 87.6808 63.9844 88.7901 63.9844H92.3261ZM86.3581 66.8964C86.3581 68.1444 87.1528 68.7684 88.7421 68.7684H91.2861V64.9924H88.8221C87.1794 64.9924 86.3581 65.6271 86.3581 66.8964ZM107.961 71.4084V74.4324H106.889V72.4004H99.3527V74.4324H98.2807V71.4084H98.7607C99.3261 71.3764 99.7101 70.9604 99.9127 70.1604C100.115 69.3604 100.254 68.2404 100.329 66.8004L100.441 63.9844H106.649V71.4084H107.961ZM101.369 66.8644C101.315 68.0591 101.214 69.0457 101.065 69.8244C100.915 70.5924 100.649 71.1204 100.265 71.4084H105.513V64.9924H101.465L101.369 66.8644ZM113.071 63.9204C114.169 63.9204 115.012 64.1977 115.599 64.7524C116.185 65.2964 116.479 66.1071 116.479 67.1844V72.4004H115.391V71.0884C115.135 71.5257 114.756 71.8671 114.255 72.1124C113.764 72.3577 113.177 72.4804 112.495 72.4804C111.556 72.4804 110.809 72.2564 110.255 71.8084C109.7 71.3604 109.423 70.7684 109.423 70.0324C109.423 69.3177 109.679 68.7417 110.191 68.3044C110.713 67.8671 111.54 67.6484 112.671 67.6484H115.343V67.1364C115.343 66.4111 115.14 65.8617 114.735 65.4884C114.329 65.1044 113.737 64.9124 112.959 64.9124C112.425 64.9124 111.913 65.0031 111.423 65.1844C110.932 65.3551 110.511 65.5951 110.159 65.9044L109.647 65.0564C110.073 64.6937 110.585 64.4164 111.183 64.2244C111.78 64.0217 112.409 63.9204 113.071 63.9204ZM112.671 71.5844C113.311 71.5844 113.86 71.4404 114.319 71.1524C114.777 70.8537 115.119 70.4271 115.343 69.8724V68.4964H112.703C111.263 68.4964 110.543 68.9977 110.543 70.0004C110.543 70.4911 110.729 70.8804 111.103 71.1684C111.476 71.4457 111.999 71.5844 112.671 71.5844ZM127.711 71.4084V74.4324H126.639V72.4004H119.103V74.4324H118.031V71.4084H118.511C119.076 71.3764 119.46 70.9604 119.663 70.1604C119.865 69.3604 120.004 68.2404 120.079 66.8004L120.191 63.9844H126.399V71.4084H127.711ZM121.119 66.8644C121.065 68.0591 120.964 69.0457 120.815 69.8244C120.665 70.5924 120.399 71.1204 120.015 71.4084H125.263V64.9924H121.215L121.119 66.8644ZM137.077 63.9844L132.869 73.4084C132.527 74.1977 132.133 74.7577 131.685 75.0884C131.237 75.4191 130.698 75.5844 130.069 75.5844C129.663 75.5844 129.285 75.5204 128.933 75.3924C128.581 75.2644 128.277 75.0724 128.021 74.8164L128.549 73.9684C128.975 74.3951 129.487 74.6084 130.085 74.6084C130.469 74.6084 130.794 74.5017 131.061 74.2884C131.338 74.0751 131.594 73.7124 131.829 73.2004L132.197 72.3844L128.437 63.9844H129.621L132.789 71.1364L135.957 63.9844H137.077ZM144.798 64.9924H141.614V72.4004H140.478V64.9924H137.294V63.9844H144.798V64.9924ZM150.628 63.9844H151.764V67.7124H157.06V63.9844H158.196V72.4004H157.06V68.6884H151.764V72.4004H150.628V63.9844ZM164.321 63.9204C165.419 63.9204 166.262 64.1977 166.849 64.7524C167.435 65.2964 167.729 66.1071 167.729 67.1844V72.4004H166.641V71.0884C166.385 71.5257 166.006 71.8671 165.505 72.1124C165.014 72.3577 164.427 72.4804 163.745 72.4804C162.806 72.4804 162.059 72.2564 161.505 71.8084C160.95 71.3604 160.673 70.7684 160.673 70.0324C160.673 69.3177 160.929 68.7417 161.441 68.3044C161.963 67.8671 162.79 67.6484 163.921 67.6484H166.593V67.1364C166.593 66.4111 166.39 65.8617 165.985 65.4884C165.579 65.1044 164.987 64.9124 164.209 64.9124C163.675 64.9124 163.163 65.0031 162.673 65.1844C162.182 65.3551 161.761 65.5951 161.409 65.9044L160.897 65.0564C161.323 64.6937 161.835 64.4164 162.433 64.2244C163.03 64.0217 163.659 63.9204 164.321 63.9204ZM163.921 71.5844C164.561 71.5844 165.11 71.4404 165.569 71.1524C166.027 70.8537 166.369 70.4271 166.593 69.8724V68.4964H163.953C162.513 68.4964 161.793 68.9977 161.793 70.0004C161.793 70.4911 161.979 70.8804 162.353 71.1684C162.726 71.4457 163.249 71.5844 163.921 71.5844ZM170.753 63.9844H171.889V70.6724L177.505 63.9844H178.513V72.4004H177.377V65.7124L171.777 72.4004H170.753V63.9844ZM185.848 64.1924C186.627 64.1924 187.32 64.3684 187.928 64.7204C188.547 65.0617 189.027 65.5471 189.368 66.1764C189.71 66.7951 189.88 67.5044 189.88 68.3044C189.88 69.1257 189.699 69.8564 189.336 70.4964C188.984 71.1257 188.488 71.6164 187.848 71.9684C187.208 72.3204 186.472 72.4964 185.64 72.4964C184.243 72.4964 183.16 72.0057 182.392 71.0244C181.624 70.0431 181.24 68.6884 181.24 66.9604C181.24 65.1577 181.582 63.7764 182.264 62.8164C182.958 61.8564 184.035 61.2057 185.496 60.8644L189.272 60.0004L189.464 61.0404L185.912 61.8564C184.707 62.1231 183.822 62.5977 183.256 63.2804C182.691 63.9524 182.382 64.9497 182.328 66.2724C182.67 65.6217 183.144 65.1151 183.752 64.7524C184.36 64.3791 185.059 64.1924 185.848 64.1924ZM185.672 71.5524C186.259 71.5524 186.782 71.4191 187.24 71.1524C187.71 70.8751 188.072 70.4911 188.328 70.0004C188.595 69.5097 188.728 68.9551 188.728 68.3364C188.728 67.7177 188.6 67.1737 188.344 66.7044C188.088 66.2351 187.726 65.8724 187.256 65.6164C186.798 65.3497 186.27 65.2164 185.672 65.2164C185.075 65.2164 184.542 65.3497 184.072 65.6164C183.614 65.8724 183.251 66.2351 182.984 66.7044C182.728 67.1737 182.6 67.7177 182.6 68.3364C182.6 68.9551 182.728 69.5097 182.984 70.0004C183.251 70.4911 183.619 70.8751 184.088 71.1524C184.558 71.4191 185.086 71.5524 185.672 71.5524ZM195.787 72.4804C194.977 72.4804 194.246 72.2991 193.595 71.9364C192.945 71.5631 192.433 71.0511 192.059 70.4004C191.686 69.7497 191.499 69.0137 191.499 68.1924C191.499 67.3711 191.686 66.6351 192.059 65.9844C192.433 65.3337 192.945 64.8271 193.595 64.4644C194.246 64.1017 194.977 63.9204 195.787 63.9204C196.598 63.9204 197.329 64.1017 197.979 64.4644C198.63 64.8271 199.137 65.3337 199.499 65.9844C199.873 66.6351 200.059 67.3711 200.059 68.1924C200.059 69.0137 199.873 69.7497 199.499 70.4004C199.137 71.0511 198.63 71.5631 197.979 71.9364C197.329 72.2991 196.598 72.4804 195.787 72.4804ZM195.787 71.4724C196.385 71.4724 196.918 71.3391 197.387 71.0724C197.867 70.7951 198.241 70.4057 198.507 69.9044C198.774 69.4031 198.907 68.8324 198.907 68.1924C198.907 67.5524 198.774 66.9817 198.507 66.4804C198.241 65.9791 197.867 65.5951 197.387 65.3284C196.918 65.0511 196.385 64.9124 195.787 64.9124C195.19 64.9124 194.651 65.0511 194.171 65.3284C193.702 65.5951 193.329 65.9791 193.051 66.4804C192.785 66.9817 192.651 67.5524 192.651 68.1924C192.651 68.8324 192.785 69.4031 193.051 69.9044C193.329 70.4057 193.702 70.7951 194.171 71.0724C194.651 71.3391 195.19 71.4724 195.787 71.4724ZM209.32 63.9844V72.4004H208.184V64.9924H204.152L204.04 67.0724C203.955 68.8217 203.752 70.1657 203.432 71.1044C203.112 72.0431 202.542 72.5124 201.72 72.5124C201.496 72.5124 201.224 72.4697 200.904 72.3844L200.984 71.4084C201.176 71.4511 201.31 71.4724 201.384 71.4724C201.822 71.4724 202.152 71.2697 202.376 70.8644C202.6 70.4591 202.75 69.9577 202.824 69.3604C202.899 68.7631 202.963 67.9737 203.016 66.9924L203.16 63.9844H209.32ZM216.166 66.9604C217.222 66.9711 218.022 67.2057 218.566 67.6644C219.12 68.1231 219.398 68.7844 219.398 69.6484C219.398 70.5444 219.099 71.2324 218.502 71.7124C217.915 72.1924 217.062 72.4271 215.942 72.4164L212.55 72.4004V63.9844H213.686V66.9284L216.166 66.9604ZM215.878 71.5524C216.656 71.5631 217.243 71.4084 217.638 71.0884C218.043 70.7577 218.246 70.2777 218.246 69.6484C218.246 69.0297 218.048 68.5711 217.654 68.2724C217.259 67.9737 216.667 67.8191 215.878 67.8084L213.686 67.7764V71.5204L215.878 71.5524ZM233.181 63.9844V72.4004H221.565V63.9844H222.701V71.4084H226.829V63.9844H227.965V71.4084H232.045V63.9844H233.181ZM236.425 63.9844H237.561V70.6724L243.177 63.9844H244.185V72.4004H243.049V65.7124L237.449 72.4004H236.425V63.9844ZM247.44 63.9844H248.576V70.6724L254.192 63.9844H255.2V72.4004H254.064V65.7124L248.464 72.4004H247.44V63.9844ZM251.264 62.7684C250.539 62.7684 249.963 62.5871 249.536 62.2244C249.11 61.8617 248.891 61.3497 248.88 60.6884H249.696C249.707 61.1044 249.856 61.4404 250.144 61.6964C250.432 61.9417 250.806 62.0644 251.264 62.0644C251.723 62.0644 252.096 61.9417 252.384 61.6964C252.683 61.4404 252.838 61.1044 252.848 60.6884H253.664C253.654 61.3497 253.43 61.8617 252.992 62.2244C252.566 62.5871 251.99 62.7684 251.264 62.7684ZM264.931 63.9204C265.774 63.9204 266.531 64.1071 267.203 64.4804C267.886 64.8431 268.419 65.3497 268.803 66.0004C269.198 66.6511 269.395 67.3817 269.395 68.1924C269.395 69.0031 269.198 69.7391 268.803 70.4004C268.419 71.0511 267.886 71.5631 267.203 71.9364C266.531 72.3097 265.774 72.4964 264.931 72.4964C264.227 72.4964 263.582 72.3897 262.995 72.1764C262.409 71.9524 261.913 71.6324 261.507 71.2164L262.179 70.5444C262.894 71.2164 263.795 71.5524 264.883 71.5524C265.491 71.5524 266.041 71.4244 266.531 71.1684C267.033 70.9124 267.438 70.5551 267.747 70.0964C268.067 69.6377 268.254 69.1257 268.307 68.5604H263.811V67.6964H268.291C268.174 66.8537 267.801 66.1711 267.171 65.6484C266.542 65.1151 265.779 64.8484 264.883 64.8484C263.795 64.8484 262.894 65.1844 262.179 65.8564L261.507 65.2004C261.913 64.7844 262.409 64.4697 262.995 64.2564C263.582 64.0324 264.227 63.9204 264.931 63.9204ZM281.944 68.1764C281.944 69.4884 281.512 70.5177 280.648 71.2644C279.784 72.0111 278.563 72.4164 276.984 72.4804V75.5044H275.88V72.4964C274.312 72.4324 273.096 72.0271 272.232 71.2804C271.379 70.5231 270.952 69.4884 270.952 68.1764C270.952 66.8751 271.379 65.8564 272.232 65.1204C273.096 64.3844 274.312 63.9844 275.88 63.9204V60.5284H276.984V63.9204C278.563 63.9951 279.784 64.4004 280.648 65.1364C281.512 65.8724 281.944 66.8857 281.944 68.1764ZM272.072 68.1764C272.072 69.1791 272.392 69.9631 273.032 70.5284C273.683 71.0937 274.632 71.4137 275.88 71.4884V64.9284C274.643 64.9924 273.699 65.3071 273.048 65.8724C272.397 66.4271 272.072 67.1951 272.072 68.1764ZM276.984 71.4884C278.232 71.4244 279.181 71.1097 279.832 70.5444C280.493 69.9791 280.824 69.1897 280.824 68.1764C280.824 67.1844 280.493 66.4111 279.832 65.8564C279.181 65.3017 278.232 64.9924 276.984 64.9284V71.4884ZM294.506 68.1764C294.506 69.4884 294.074 70.5177 293.21 71.2644C292.346 72.0111 291.125 72.4164 289.546 72.4804V75.5044H288.442V72.4964C286.874 72.4324 285.658 72.0271 284.794 71.2804C283.941 70.5231 283.514 69.4884 283.514 68.1764C283.514 66.8751 283.941 65.8564 284.794 65.1204C285.658 64.3844 286.874 63.9844 288.442 63.9204V60.5284H289.546V63.9204C291.125 63.9951 292.346 64.4004 293.21 65.1364C294.074 65.8724 294.506 66.8857 294.506 68.1764ZM284.634 68.1764C284.634 69.1791 284.954 69.9631 285.594 70.5284C286.245 71.0937 287.194 71.4137 288.442 71.4884V64.9284C287.205 64.9924 286.261 65.3071 285.61 65.8724C284.96 66.4271 284.634 67.1951 284.634 68.1764ZM289.546 71.4884C290.794 71.4244 291.744 71.1097 292.394 70.5444C293.056 69.9791 293.386 69.1897 293.386 68.1764C293.386 67.1844 293.056 66.4111 292.394 65.8564C291.744 65.3017 290.794 64.9924 289.546 64.9284V71.4884ZM304.269 68.5444H297.229C297.293 69.4191 297.629 70.1284 298.237 70.6724C298.845 71.2057 299.613 71.4724 300.541 71.4724C301.064 71.4724 301.544 71.3817 301.981 71.2004C302.418 71.0084 302.797 70.7311 303.117 70.3684L303.757 71.1044C303.384 71.5524 302.914 71.8937 302.349 72.1284C301.794 72.3631 301.181 72.4804 300.509 72.4804C299.645 72.4804 298.877 72.2991 298.205 71.9364C297.544 71.5631 297.026 71.0511 296.653 70.4004C296.28 69.7497 296.093 69.0137 296.093 68.1924C296.093 67.3711 296.269 66.6351 296.621 65.9844C296.984 65.3337 297.474 64.8271 298.093 64.4644C298.722 64.1017 299.426 63.9204 300.205 63.9204C300.984 63.9204 301.682 64.1017 302.301 64.4644C302.92 64.8271 303.405 65.3337 303.757 65.9844C304.109 66.6244 304.285 67.3604 304.285 68.1924L304.269 68.5444ZM300.205 64.8964C299.394 64.8964 298.712 65.1577 298.157 65.6804C297.613 66.1924 297.304 66.8644 297.229 67.6964H303.197C303.122 66.8644 302.808 66.1924 302.253 65.6804C301.709 65.1577 301.026 64.8964 300.205 64.8964ZM309.856 68.6564H307.936V72.4004H306.8V63.9844H307.936V67.6804H309.872L312.832 63.9844H314.064L310.752 68.0644L314.304 72.4004H312.96L309.856 68.6564ZM321.845 64.9924H318.661V72.4004H317.525V64.9924H314.341V63.9844H321.845V64.9924ZM322.848 72.4804C322.614 72.4804 322.411 72.3951 322.24 72.2244C322.08 72.0537 322 71.8457 322 71.6004C322 71.3551 322.08 71.1524 322.24 70.9924C322.411 70.8217 322.614 70.7364 322.848 70.7364C323.083 70.7364 323.286 70.8217 323.456 70.9924C323.627 71.1524 323.712 71.3551 323.712 71.6004C323.712 71.8457 323.627 72.0537 323.456 72.2244C323.286 72.3951 323.083 72.4804 322.848 72.4804Z" fill="black" fill-opacity="0.8"/>
<path d="M12.8039 14.0004H107.34V14.8004H12.8039V14.0004Z" fill="black" fill-opacity="0.8"/>
</svg>
